<svg id="黑白轮廓" xmlns="http://www.w3.org/2000/svg" viewBox="0 0 1000 1000"><defs><style>.cls-1{fill:none;stroke:#000;stroke-miterlimit:10;stroke-width:5px;}</style></defs><path d="M46.64,151l448.52,2.47v134H334.37V847.72H219.58V287.51H46.64V151m-5-5V292.51H214.58V852.72H339.37V292.51H500.16v-144L41.64,146Z"/><polygon points="339.37 292.5 430.4 371.04 430.4 852.72 339.37 852.72 339.37 292.5"/><polygon points="500.16 292.5 676.3 445 430.4 699.11 430.4 852.72 668.38 606.93 668.38 854.06 831.8 854.06 833.07 428.56 958.23 292.02 958.86 149.16 752.79 363.45 500.16 148.53 500.16 292.5"/><polyline class="cls-1" points="427.87 547.4 523.32 451.32 339.37 292.5"/><polyline class="cls-1" points="599.44 673.08 599.44 785.12 670.91 851.53"/><polyline class="cls-1" points="672.5 295.03 820.42 151.69 958.86 151.69"/><polygon points="41.64 292.5 114.73 363.45 214.58 363.45 214.58 292.5 41.64 292.5"/></svg>