G04*
G04 #@! TF.GenerationSoftware,Altium Limited,Altium Designer,23.0.1 (38)*
G04*
G04 Layer_Color=128*
%FSLAX44Y44*%
%MOMM*%
G71*
G04*
G04 #@! TF.SameCoordinates,415B9E50-699A-4425-B3A7-CA41C988AD1A*
G04*
G04*
G04 #@! TF.FilePolarity,Positive*
G04*
G01*
G75*
%ADD30R,0.8000X1.0000*%
%ADD31R,0.7620X0.7620*%
%ADD32R,0.7620X0.7620*%
%ADD33R,2.5000X1.1000*%
%ADD34R,2.3400X3.6000*%
%ADD35R,0.8890X1.2700*%
%ADD36R,1.3000X5.5000*%
%ADD37R,0.7000X1.5000*%
%ADD38R,1.1176X1.7018*%
%ADD39R,0.9000X1.7000*%
G04:AMPARAMS|DCode=40|XSize=1.8mm|YSize=0.9mm|CornerRadius=0mm|HoleSize=0mm|Usage=FLASHONLY|Rotation=270.000|XOffset=0mm|YOffset=0mm|HoleType=Round|Shape=Octagon|*
%AMOCTAGOND40*
4,1,8,-0.2250,-0.9000,0.2250,-0.9000,0.4500,-0.6750,0.4500,0.6750,0.2250,0.9000,-0.2250,0.9000,-0.4500,0.6750,-0.4500,-0.6750,-0.2250,-0.9000,0.0*
%
%ADD40OCTAGOND40*%

%ADD41O,1.8953X0.4409*%
%ADD42O,0.4409X1.8953*%
%ADD43R,0.3000X1.3000*%
%ADD44R,1.7000X0.9000*%
G04:AMPARAMS|DCode=45|XSize=1.8mm|YSize=0.9mm|CornerRadius=0mm|HoleSize=0mm|Usage=FLASHONLY|Rotation=0.000|XOffset=0mm|YOffset=0mm|HoleType=Round|Shape=Octagon|*
%AMOCTAGOND45*
4,1,8,0.9000,-0.2250,0.9000,0.2250,0.6750,0.4500,-0.6750,0.4500,-0.9000,0.2250,-0.9000,-0.2250,-0.6750,-0.4500,0.6750,-0.4500,0.9000,-0.2250,0.0*
%
%ADD45OCTAGOND45*%

%ADD46R,2.5500X2.5000*%
G36*
X470338Y1064257D02*
Y1051257D01*
X467338D01*
Y1064257D01*
X470338D01*
D02*
G37*
G36*
X472340Y1051257D02*
Y1064257D01*
X475340D01*
Y1051257D01*
X472340D01*
D02*
G37*
G36*
X480338Y1064257D02*
Y1051257D01*
X477338D01*
Y1064257D01*
X480338D01*
D02*
G37*
G36*
X485340Y1064257D02*
Y1051257D01*
X482340D01*
Y1064257D01*
X485340D01*
D02*
G37*
G36*
X457339Y1064257D02*
Y1051257D01*
X454339D01*
X451339Y1051258D01*
Y1064258D01*
X454339D01*
X457339Y1064257D01*
D02*
G37*
G36*
X465339Y1064258D02*
Y1051258D01*
X462339D01*
X459339Y1051258D01*
Y1064258D01*
X462340D01*
X465339Y1064258D01*
D02*
G37*
G36*
X443536Y1055458D02*
X443237Y1055443D01*
X442938D01*
X442639Y1055458D01*
X442342Y1055488D01*
X442046Y1055532D01*
X441753Y1055592D01*
X441463Y1055665D01*
X441177Y1055753D01*
X440896Y1055856D01*
X440620Y1055972D01*
X440350Y1056102D01*
X440088Y1056245D01*
X439832Y1056401D01*
X439585Y1056569D01*
X439347Y1056750D01*
X439118Y1056943D01*
X438898Y1057146D01*
X438689Y1057360D01*
X438491Y1057584D01*
X438305Y1057818D01*
X438130Y1058061D01*
X437968Y1058313D01*
X437818Y1058572D01*
X437682Y1058838D01*
X437559Y1059110D01*
X437450Y1059389D01*
X437354Y1059672D01*
X437273Y1059960D01*
X437207Y1060252D01*
X437155Y1060547D01*
X437118Y1060844D01*
X437095Y1061142D01*
X437088Y1061441D01*
Y1069441D01*
X437095Y1069740D01*
X437118Y1070039D01*
X437155Y1070335D01*
X437207Y1070630D01*
X437273Y1070922D01*
X437354Y1071210D01*
X437450Y1071493D01*
X437559Y1071772D01*
X437682Y1072044D01*
X437818Y1072310D01*
X437968Y1072570D01*
X438130Y1072821D01*
X438305Y1073064D01*
X438491Y1073298D01*
X438689Y1073522D01*
X438898Y1073736D01*
X439118Y1073940D01*
X439347Y1074132D01*
X439585Y1074313D01*
X439832Y1074481D01*
X440088Y1074637D01*
X440350Y1074780D01*
X440620Y1074910D01*
X440896Y1075026D01*
X441177Y1075129D01*
X441463Y1075217D01*
X441753Y1075291D01*
X442046Y1075350D01*
X442342Y1075395D01*
X442639Y1075424D01*
X442938Y1075439D01*
X443237D01*
X443536Y1075424D01*
X443834Y1075395D01*
X444130Y1075350D01*
X444423Y1075291D01*
X444713Y1075217D01*
X444999Y1075129D01*
X445280Y1075026D01*
X445555Y1074910D01*
X445825Y1074780D01*
X446088Y1074637D01*
X446343Y1074481D01*
X446590Y1074313D01*
X446829Y1074132D01*
X447058Y1073940D01*
X447277Y1073736D01*
X447486Y1073522D01*
X447684Y1073298D01*
X447871Y1073064D01*
X448045Y1072821D01*
X448207Y1072570D01*
X448357Y1072310D01*
X448494Y1072044D01*
X448617Y1071772D01*
X448726Y1071493D01*
X448821Y1071210D01*
X448902Y1070922D01*
X448969Y1070630D01*
X449021Y1070335D01*
X449058Y1070039D01*
X449080Y1069740D01*
X449088Y1069441D01*
Y1061441D01*
X449080Y1061142D01*
X449058Y1060844D01*
X449021Y1060547D01*
X448969Y1060252D01*
X448902Y1059960D01*
X448821Y1059672D01*
X448726Y1059389D01*
X448617Y1059110D01*
X448494Y1058838D01*
X448357Y1058572D01*
X448207Y1058313D01*
X448045Y1058061D01*
X447871Y1057818D01*
X447684Y1057584D01*
X447486Y1057360D01*
X447277Y1057146D01*
X447058Y1056943D01*
X446829Y1056750D01*
X446590Y1056569D01*
X446343Y1056401D01*
X446088Y1056245D01*
X445825Y1056102D01*
X445555Y1055972D01*
X445280Y1055856D01*
X444999Y1055753D01*
X444713Y1055665D01*
X444423Y1055592D01*
X444130Y1055532D01*
X443834Y1055488D01*
X443536Y1055458D01*
D02*
G37*
G36*
X442938Y1098442D02*
X442639Y1098457D01*
X442342Y1098486D01*
X442046Y1098531D01*
X441753Y1098590D01*
X441463Y1098664D01*
X441177Y1098752D01*
X440896Y1098855D01*
X440620Y1098971D01*
X440350Y1099101D01*
X440088Y1099244D01*
X439832Y1099400D01*
X439585Y1099568D01*
X439347Y1099749D01*
X439118Y1099941D01*
X438898Y1100145D01*
X438689Y1100359D01*
X438491Y1100583D01*
X438305Y1100817D01*
X438130Y1101060D01*
X437968Y1101311D01*
X437818Y1101571D01*
X437682Y1101837D01*
X437559Y1102109D01*
X437450Y1102388D01*
X437354Y1102671D01*
X437273Y1102959D01*
X437207Y1103251D01*
X437155Y1103546D01*
X437118Y1103843D01*
X437095Y1104141D01*
X437088Y1104440D01*
Y1110440D01*
X437095Y1110739D01*
X437118Y1111037D01*
X437155Y1111334D01*
X437207Y1111629D01*
X437273Y1111921D01*
X437354Y1112209D01*
X437450Y1112492D01*
X437559Y1112771D01*
X437682Y1113043D01*
X437818Y1113309D01*
X437968Y1113568D01*
X438130Y1113820D01*
X438305Y1114063D01*
X438491Y1114297D01*
X438689Y1114521D01*
X438898Y1114735D01*
X439118Y1114939D01*
X439347Y1115131D01*
X439585Y1115312D01*
X439832Y1115480D01*
X440088Y1115636D01*
X440350Y1115779D01*
X440620Y1115909D01*
X440896Y1116025D01*
X441177Y1116128D01*
X441463Y1116216D01*
X441753Y1116290D01*
X442046Y1116349D01*
X442342Y1116394D01*
X442639Y1116423D01*
X442938Y1116438D01*
X443237D01*
X443536Y1116423D01*
X443834Y1116394D01*
X444130Y1116349D01*
X444423Y1116290D01*
X444713Y1116216D01*
X444999Y1116128D01*
X445280Y1116025D01*
X445555Y1115909D01*
X445825Y1115779D01*
X446088Y1115636D01*
X446343Y1115480D01*
X446590Y1115312D01*
X446829Y1115131D01*
X447058Y1114939D01*
X447277Y1114735D01*
X447486Y1114521D01*
X447684Y1114297D01*
X447871Y1114063D01*
X448045Y1113820D01*
X448207Y1113568D01*
X448357Y1113309D01*
X448494Y1113043D01*
X448617Y1112771D01*
X448726Y1112492D01*
X448821Y1112209D01*
X448902Y1111921D01*
X448969Y1111629D01*
X449021Y1111334D01*
X449058Y1111037D01*
X449080Y1110739D01*
X449088Y1110440D01*
Y1104440D01*
X449080Y1104141D01*
X449058Y1103843D01*
X449021Y1103546D01*
X448969Y1103251D01*
X448902Y1102959D01*
X448821Y1102671D01*
X448726Y1102388D01*
X448617Y1102109D01*
X448494Y1101837D01*
X448357Y1101571D01*
X448207Y1101311D01*
X448045Y1101060D01*
X447871Y1100817D01*
X447684Y1100583D01*
X447486Y1100359D01*
X447277Y1100145D01*
X447058Y1099941D01*
X446829Y1099749D01*
X446590Y1099568D01*
X446343Y1099400D01*
X446088Y1099244D01*
X445825Y1099101D01*
X445555Y1098971D01*
X445280Y1098855D01*
X444999Y1098752D01*
X444713Y1098664D01*
X444423Y1098590D01*
X444130Y1098531D01*
X443834Y1098486D01*
X443536Y1098457D01*
X443237Y1098442D01*
X442938D01*
D02*
G37*
G36*
X530038Y1116423D02*
X530336Y1116394D01*
X530632Y1116349D01*
X530925Y1116290D01*
X531215Y1116216D01*
X531501Y1116128D01*
X531782Y1116025D01*
X532058Y1115909D01*
X532327Y1115779D01*
X532590Y1115636D01*
X532845Y1115480D01*
X533092Y1115312D01*
X533331Y1115131D01*
X533560Y1114939D01*
X533779Y1114735D01*
X533988Y1114521D01*
X534186Y1114297D01*
X534373Y1114063D01*
X534547Y1113820D01*
X534710Y1113568D01*
X534859Y1113309D01*
X534996Y1113043D01*
X535119Y1112771D01*
X535228Y1112492D01*
X535323Y1112209D01*
X535405Y1111921D01*
X535471Y1111629D01*
X535523Y1111334D01*
X535560Y1111037D01*
X535583Y1110739D01*
X535590Y1110440D01*
Y1104440D01*
X535583Y1104141D01*
X535560Y1103843D01*
X535523Y1103546D01*
X535471Y1103251D01*
X535405Y1102959D01*
X535323Y1102671D01*
X535228Y1102388D01*
X535119Y1102109D01*
X534996Y1101837D01*
X534859Y1101571D01*
X534710Y1101311D01*
X534547Y1101060D01*
X534373Y1100817D01*
X534186Y1100583D01*
X533988Y1100359D01*
X533779Y1100145D01*
X533560Y1099941D01*
X533331Y1099749D01*
X533092Y1099568D01*
X532845Y1099400D01*
X532590Y1099244D01*
X532327Y1099101D01*
X532058Y1098971D01*
X531782Y1098855D01*
X531501Y1098752D01*
X531215Y1098664D01*
X530925Y1098590D01*
X530632Y1098531D01*
X530336Y1098486D01*
X530038Y1098457D01*
X529740Y1098442D01*
X529440D01*
X529142Y1098457D01*
X528844Y1098486D01*
X528548Y1098531D01*
X528255Y1098590D01*
X527965Y1098664D01*
X527679Y1098752D01*
X527398Y1098855D01*
X527122Y1098971D01*
X526853Y1099101D01*
X526590Y1099244D01*
X526335Y1099400D01*
X526088Y1099568D01*
X525849Y1099749D01*
X525620Y1099941D01*
X525401Y1100145D01*
X525192Y1100359D01*
X524994Y1100583D01*
X524807Y1100817D01*
X524633Y1101060D01*
X524470Y1101311D01*
X524321Y1101571D01*
X524184Y1101837D01*
X524061Y1102109D01*
X523952Y1102388D01*
X523857Y1102671D01*
X523775Y1102959D01*
X523709Y1103251D01*
X523657Y1103546D01*
X523620Y1103843D01*
X523597Y1104141D01*
X523590Y1104440D01*
Y1110440D01*
X523597Y1110739D01*
X523620Y1111037D01*
X523657Y1111334D01*
X523709Y1111629D01*
X523775Y1111921D01*
X523857Y1112209D01*
X523952Y1112492D01*
X524061Y1112771D01*
X524184Y1113043D01*
X524321Y1113309D01*
X524470Y1113568D01*
X524633Y1113820D01*
X524807Y1114063D01*
X524994Y1114297D01*
X525192Y1114521D01*
X525401Y1114735D01*
X525620Y1114939D01*
X525849Y1115131D01*
X526088Y1115312D01*
X526335Y1115480D01*
X526590Y1115636D01*
X526853Y1115779D01*
X527122Y1115909D01*
X527398Y1116025D01*
X527679Y1116128D01*
X527965Y1116216D01*
X528255Y1116290D01*
X528548Y1116349D01*
X528844Y1116394D01*
X529142Y1116423D01*
X529440Y1116438D01*
X529740D01*
X530038Y1116423D01*
D02*
G37*
G36*
Y1075424D02*
X530336Y1075395D01*
X530632Y1075350D01*
X530925Y1075291D01*
X531215Y1075217D01*
X531501Y1075129D01*
X531782Y1075026D01*
X532058Y1074910D01*
X532327Y1074780D01*
X532590Y1074637D01*
X532845Y1074481D01*
X533092Y1074313D01*
X533331Y1074132D01*
X533560Y1073940D01*
X533779Y1073736D01*
X533988Y1073522D01*
X534186Y1073298D01*
X534373Y1073064D01*
X534547Y1072821D01*
X534710Y1072570D01*
X534859Y1072310D01*
X534996Y1072044D01*
X535119Y1071772D01*
X535228Y1071493D01*
X535323Y1071210D01*
X535405Y1070922D01*
X535471Y1070630D01*
X535523Y1070335D01*
X535560Y1070039D01*
X535583Y1069740D01*
X535590Y1069441D01*
Y1061441D01*
X535583Y1061142D01*
X535560Y1060844D01*
X535523Y1060547D01*
X535471Y1060252D01*
X535405Y1059960D01*
X535323Y1059672D01*
X535228Y1059389D01*
X535119Y1059110D01*
X534996Y1058838D01*
X534859Y1058572D01*
X534710Y1058313D01*
X534547Y1058061D01*
X534373Y1057818D01*
X534186Y1057584D01*
X533988Y1057360D01*
X533779Y1057146D01*
X533560Y1056943D01*
X533331Y1056750D01*
X533092Y1056569D01*
X532845Y1056401D01*
X532590Y1056245D01*
X532327Y1056102D01*
X532058Y1055972D01*
X531782Y1055856D01*
X531501Y1055753D01*
X531215Y1055665D01*
X530925Y1055592D01*
X530632Y1055532D01*
X530336Y1055488D01*
X530038Y1055458D01*
X529740Y1055443D01*
X529440D01*
X529142Y1055458D01*
X528844Y1055488D01*
X528548Y1055532D01*
X528255Y1055592D01*
X527965Y1055665D01*
X527679Y1055753D01*
X527398Y1055856D01*
X527122Y1055972D01*
X526853Y1056102D01*
X526590Y1056245D01*
X526335Y1056401D01*
X526088Y1056569D01*
X525849Y1056750D01*
X525620Y1056943D01*
X525401Y1057146D01*
X525192Y1057360D01*
X524994Y1057584D01*
X524807Y1057818D01*
X524633Y1058061D01*
X524470Y1058313D01*
X524321Y1058572D01*
X524184Y1058838D01*
X524061Y1059110D01*
X523952Y1059389D01*
X523857Y1059672D01*
X523775Y1059960D01*
X523709Y1060252D01*
X523657Y1060547D01*
X523620Y1060844D01*
X523597Y1061142D01*
X523590Y1061441D01*
Y1069441D01*
X523597Y1069740D01*
X523620Y1070039D01*
X523657Y1070335D01*
X523709Y1070630D01*
X523775Y1070922D01*
X523857Y1071210D01*
X523952Y1071493D01*
X524061Y1071772D01*
X524184Y1072044D01*
X524321Y1072310D01*
X524470Y1072570D01*
X524633Y1072821D01*
X524807Y1073064D01*
X524994Y1073298D01*
X525192Y1073522D01*
X525401Y1073736D01*
X525620Y1073940D01*
X525849Y1074132D01*
X526088Y1074313D01*
X526335Y1074481D01*
X526590Y1074637D01*
X526853Y1074780D01*
X527122Y1074910D01*
X527398Y1075026D01*
X527679Y1075129D01*
X527965Y1075217D01*
X528255Y1075291D01*
X528548Y1075350D01*
X528844Y1075395D01*
X529142Y1075424D01*
X529440Y1075439D01*
X529740D01*
X530038Y1075424D01*
D02*
G37*
G36*
X505340Y1051257D02*
X502340D01*
Y1064257D01*
X505340D01*
Y1051257D01*
D02*
G37*
G36*
X500336D02*
X497336D01*
Y1064257D01*
X500336D01*
Y1051257D01*
D02*
G37*
G36*
X495340D02*
X492340D01*
Y1064257D01*
X495340D01*
Y1051257D01*
D02*
G37*
G36*
X521339Y1051257D02*
X515339D01*
Y1064256D01*
X521339D01*
Y1051257D01*
D02*
G37*
G36*
X513341D02*
X507340D01*
Y1064256D01*
X513341D01*
Y1051257D01*
D02*
G37*
G36*
X490338D02*
X487338D01*
Y1064257D01*
X490338D01*
Y1051257D01*
D02*
G37*
D30*
X335940Y650170D02*
D03*
X345439Y673170D02*
D03*
X354940Y650170D02*
D03*
D31*
X345439Y689459D02*
D03*
Y702459D02*
D03*
X1089937Y456230D02*
D03*
Y443230D02*
D03*
X473710Y1036828D02*
D03*
X473726Y1022985D02*
D03*
X502920Y1023112D02*
D03*
X502904Y1036955D02*
D03*
D32*
X340209Y631084D02*
D03*
X353209D02*
D03*
X1529080Y537210D02*
D03*
X1516080D02*
D03*
X1531471Y369569D02*
D03*
X1544471D02*
D03*
X1320949Y461664D02*
D03*
X1307949D02*
D03*
X1320949Y444090D02*
D03*
X1307949D02*
D03*
X1321100Y426515D02*
D03*
X1308100D02*
D03*
X1320949Y382271D02*
D03*
X1307949D02*
D03*
X1321100Y408940D02*
D03*
X1308100D02*
D03*
X1320949Y496813D02*
D03*
X1307949D02*
D03*
X1320949Y479239D02*
D03*
X1307949D02*
D03*
D33*
X632950Y669692D02*
D03*
Y646693D02*
D03*
Y623693D02*
D03*
D34*
X573550Y646693D02*
D03*
D35*
X590550Y575310D02*
D03*
X609550D02*
D03*
X591209Y599441D02*
D03*
X610209D02*
D03*
X609550Y717550D02*
D03*
X590550D02*
D03*
X608941Y693419D02*
D03*
X589941D02*
D03*
D36*
X1530350Y498695D02*
D03*
Y407636D02*
D03*
D37*
X1074240Y427080D02*
D03*
Y472080D02*
D03*
X1051740Y427080D02*
D03*
Y472080D02*
D03*
D38*
X1873758Y586740D02*
D03*
X1910842D02*
D03*
X1684528D02*
D03*
X1721612D02*
D03*
X1495298D02*
D03*
X1532382D02*
D03*
X2470658D02*
D03*
X2507742D02*
D03*
X2042668Y397510D02*
D03*
X2079752D02*
D03*
X1659128D02*
D03*
X1696212D02*
D03*
X1182878D02*
D03*
X1219962D02*
D03*
X850138Y396240D02*
D03*
X887222D02*
D03*
X634238D02*
D03*
X671322D02*
D03*
X2468118Y397510D02*
D03*
X2505202D02*
D03*
X418338Y396240D02*
D03*
X455422D02*
D03*
X2252218Y397510D02*
D03*
X2289302D02*
D03*
X923798Y586740D02*
D03*
X960882D02*
D03*
X1114298D02*
D03*
X1151382D02*
D03*
X731266D02*
D03*
X768350D02*
D03*
X470408D02*
D03*
X507492D02*
D03*
X2254758D02*
D03*
X2291842D02*
D03*
X2068068D02*
D03*
X2105152D02*
D03*
X1307338D02*
D03*
X1344422D02*
D03*
X1588008Y778510D02*
D03*
X1625092D02*
D03*
X1209548Y777240D02*
D03*
X1246632D02*
D03*
X1015238D02*
D03*
X1052322D02*
D03*
X826008D02*
D03*
X863092D02*
D03*
X635508Y778510D02*
D03*
X672592D02*
D03*
X418338Y777240D02*
D03*
X455422D02*
D03*
X2423668D02*
D03*
X2460752D02*
D03*
X2160778D02*
D03*
X2197862D02*
D03*
X1971548D02*
D03*
X2008632D02*
D03*
X1397508Y778510D02*
D03*
X1434592D02*
D03*
X1781048Y777240D02*
D03*
X1818132D02*
D03*
X1918208Y967740D02*
D03*
X1955292D02*
D03*
X2111248D02*
D03*
X2148332D02*
D03*
X2300478D02*
D03*
X2337562D02*
D03*
X2493518D02*
D03*
X2530602D02*
D03*
X775208D02*
D03*
X812292D02*
D03*
X1727708D02*
D03*
X1764792D02*
D03*
X584708D02*
D03*
X621792D02*
D03*
X1537208Y969010D02*
D03*
X1574292D02*
D03*
X1156208Y967740D02*
D03*
X1193292D02*
D03*
X1349248D02*
D03*
X1386332D02*
D03*
X965708D02*
D03*
X1002792D02*
D03*
X394208D02*
D03*
X431292D02*
D03*
D39*
X987940Y418540D02*
D03*
X972940D02*
D03*
Y475540D02*
D03*
X753029Y424890D02*
D03*
X738028D02*
D03*
Y481890D02*
D03*
X538399Y427430D02*
D03*
X523399D02*
D03*
Y484430D02*
D03*
X2372279Y416000D02*
D03*
X2357278D02*
D03*
Y473000D02*
D03*
X2158919Y419810D02*
D03*
X2143918D02*
D03*
Y476810D02*
D03*
X1868050Y418540D02*
D03*
X1853050D02*
D03*
Y475540D02*
D03*
D40*
X987940Y476040D02*
D03*
X753029Y482390D02*
D03*
X538399Y484930D02*
D03*
X2372279Y473500D02*
D03*
X2158919Y477310D02*
D03*
X1868050Y476040D02*
D03*
D41*
X1474564Y422148D02*
D03*
X1357536Y430022D02*
D03*
X1474564Y477266D02*
D03*
Y414274D02*
D03*
X1357536Y406400D02*
D03*
Y453644D02*
D03*
Y461518D02*
D03*
Y469392D02*
D03*
Y477266D02*
D03*
Y485140D02*
D03*
X1474564Y430022D02*
D03*
Y437896D02*
D03*
Y445770D02*
D03*
Y453644D02*
D03*
Y461518D02*
D03*
Y469392D02*
D03*
X1357536Y414274D02*
D03*
Y422148D02*
D03*
X1474564Y485140D02*
D03*
Y406400D02*
D03*
X1357536Y445770D02*
D03*
Y437896D02*
D03*
D42*
X1431798Y387256D02*
D03*
X1439672D02*
D03*
Y504284D02*
D03*
X1423924Y387256D02*
D03*
X1376680Y504284D02*
D03*
X1400302Y387256D02*
D03*
X1392428D02*
D03*
X1384554D02*
D03*
X1376680D02*
D03*
X1416050Y504284D02*
D03*
X1423924D02*
D03*
X1431798D02*
D03*
X1392428D02*
D03*
X1400302D02*
D03*
X1408176D02*
D03*
X1447546D02*
D03*
X1455420D02*
D03*
Y387256D02*
D03*
X1416050D02*
D03*
X1447546D02*
D03*
X1408176D02*
D03*
X1384554Y504284D02*
D03*
D43*
X483839Y1057758D02*
D03*
X493839D02*
D03*
X488838D02*
D03*
X478838D02*
D03*
X452839D02*
D03*
X519839D02*
D03*
X516839D02*
D03*
X455839D02*
D03*
X473839D02*
D03*
X503839D02*
D03*
X460840D02*
D03*
X511841D02*
D03*
X508838D02*
D03*
X463840D02*
D03*
X468838D02*
D03*
X498836D02*
D03*
D44*
X388060Y875150D02*
D03*
X2517700Y1079380D02*
D03*
X2445310Y890150D02*
D03*
X437030Y684530D02*
D03*
X1459940Y684650D02*
D03*
X1326440Y699650D02*
D03*
X2436570Y683380D02*
D03*
X2278940Y699650D02*
D03*
X388060Y494150D02*
D03*
X2493570Y698380D02*
D03*
X2221940Y494150D02*
D03*
X2065580Y507880D02*
D03*
X2493570Y509150D02*
D03*
X363930Y1065650D02*
D03*
X2088440Y698380D02*
D03*
X2221940Y684650D02*
D03*
X2031440Y683380D02*
D03*
X1897940Y699650D02*
D03*
X659690Y890150D02*
D03*
X793190Y875150D02*
D03*
X602690D02*
D03*
X445060Y890150D02*
D03*
X874320Y507880D02*
D03*
X1151330Y492880D02*
D03*
X817320D02*
D03*
X659690Y509150D02*
D03*
X1516940Y699650D02*
D03*
X1650440Y684650D02*
D03*
X1135940Y699650D02*
D03*
X1269440Y684650D02*
D03*
X1078940D02*
D03*
X945440Y699650D02*
D03*
X445060Y509150D02*
D03*
X602690Y494150D02*
D03*
X1040690Y890150D02*
D03*
X1174190Y875150D02*
D03*
X983690D02*
D03*
X850190Y890150D02*
D03*
X2278940Y509150D02*
D03*
X2436570Y494150D02*
D03*
X992430Y1080650D02*
D03*
X1125930Y1065650D02*
D03*
X935430D02*
D03*
X801930Y1080650D02*
D03*
X2388310Y875150D02*
D03*
X2183690Y890150D02*
D03*
X420930Y1080650D02*
D03*
X554430Y1065650D02*
D03*
X1231190Y890150D02*
D03*
X1364690Y875150D02*
D03*
X1421690Y890150D02*
D03*
X1555190Y875150D02*
D03*
X1612190Y890150D02*
D03*
X1745690Y873880D02*
D03*
X1944930Y1079380D02*
D03*
X2079700Y1064380D02*
D03*
X1887930D02*
D03*
X1754430Y1080650D02*
D03*
X1802690Y888880D02*
D03*
X1936190Y875150D02*
D03*
X1993190Y890150D02*
D03*
X2126690Y875150D02*
D03*
X2008580Y492880D02*
D03*
X1683310Y509150D02*
D03*
X1840940Y684650D02*
D03*
X1707440Y699650D02*
D03*
X2136700Y1079380D02*
D03*
X2268930Y1064380D02*
D03*
X2325930Y1079380D02*
D03*
X2460700Y1064380D02*
D03*
X611430Y1080650D02*
D03*
X744930Y1065650D02*
D03*
X1182930Y1080650D02*
D03*
X1316430Y1064380D02*
D03*
X494030Y699530D02*
D03*
X697940Y684650D02*
D03*
X1208330Y507880D02*
D03*
X1626310Y494150D02*
D03*
X1373430Y1079380D02*
D03*
X1506930Y1065650D02*
D03*
X1697430D02*
D03*
X1563930Y1080650D02*
D03*
X888440Y684650D02*
D03*
X754940Y699650D02*
D03*
X2088440Y683380D02*
D03*
X659690Y875150D02*
D03*
X874320Y492880D02*
D03*
X1516940Y684650D02*
D03*
X1135940D02*
D03*
X445060Y875150D02*
D03*
Y494150D02*
D03*
X1040690Y875150D02*
D03*
X2278940Y494150D02*
D03*
X992430Y1065650D02*
D03*
X2445310Y875150D02*
D03*
X420930Y1065650D02*
D03*
X1231190Y875150D02*
D03*
X1421690D02*
D03*
X1612190D02*
D03*
X1944930Y1064380D02*
D03*
X1802690Y873880D02*
D03*
X1993190Y875150D02*
D03*
X2183690D02*
D03*
X2065580Y492880D02*
D03*
X1897940Y684650D02*
D03*
X1707440D02*
D03*
X2136700Y1064380D02*
D03*
X2325930D02*
D03*
X611430Y1065650D02*
D03*
X1182930D02*
D03*
X2493570Y494150D02*
D03*
X850190Y875150D02*
D03*
X494030Y684530D02*
D03*
X2493570Y683380D02*
D03*
X1208330Y492880D02*
D03*
X1683310Y494150D02*
D03*
X1373430Y1064380D02*
D03*
X1754430Y1065650D02*
D03*
X2278940Y684650D02*
D03*
X1326440D02*
D03*
X801930Y1065650D02*
D03*
X659690Y494150D02*
D03*
X945440Y684650D02*
D03*
X1563930Y1065650D02*
D03*
X754940Y684650D02*
D03*
X2517700Y1064380D02*
D03*
D45*
X2030940Y698380D02*
D03*
X602190Y890150D02*
D03*
X816820Y507880D02*
D03*
X1459440Y699650D02*
D03*
X1078440D02*
D03*
X387560Y890150D02*
D03*
Y509150D02*
D03*
X983190Y890150D02*
D03*
X2221440Y509150D02*
D03*
X934930Y1080650D02*
D03*
X2387810Y890150D02*
D03*
X363430Y1080650D02*
D03*
X1173690Y890150D02*
D03*
X1364190D02*
D03*
X1554690D02*
D03*
X1887430Y1079380D02*
D03*
X1745190Y888880D02*
D03*
X1935690Y890150D02*
D03*
X2126190D02*
D03*
X2008080Y507880D02*
D03*
X1840440Y699650D02*
D03*
X1649940D02*
D03*
X2079200Y1079380D02*
D03*
X2268430D02*
D03*
X553930Y1080650D02*
D03*
X1125430D02*
D03*
X2436070Y509150D02*
D03*
X792690Y890150D02*
D03*
X436530Y699530D02*
D03*
X2436070Y698380D02*
D03*
X1150830Y507880D02*
D03*
X1625810Y509150D02*
D03*
X1315930Y1079380D02*
D03*
X1696930Y1080650D02*
D03*
X2221440Y699650D02*
D03*
X1268940D02*
D03*
X744430Y1080650D02*
D03*
X602190Y509150D02*
D03*
X887940Y699650D02*
D03*
X1506430Y1080650D02*
D03*
X697440Y699650D02*
D03*
X2460200Y1079380D02*
D03*
D46*
X1040930Y998220D02*
D03*
X469430D02*
D03*
X1993430Y996950D02*
D03*
X2185200D02*
D03*
X2374430D02*
D03*
X659930Y998220D02*
D03*
X1231430D02*
D03*
X1421930Y996950D02*
D03*
X1802930Y998220D02*
D03*
X850430D02*
D03*
X1612430D02*
D03*
X2566200Y996950D02*
D03*
X708190Y807720D02*
D03*
X493560D02*
D03*
X1089190D02*
D03*
X2493810D02*
D03*
X1279690D02*
D03*
X1470190D02*
D03*
X1660690D02*
D03*
X1851190Y806450D02*
D03*
X2041690Y807720D02*
D03*
X2232190D02*
D03*
X898690D02*
D03*
X2136940Y615950D02*
D03*
X1565440Y617220D02*
D03*
X1184440D02*
D03*
X1946440D02*
D03*
X1755940D02*
D03*
X542530Y617100D02*
D03*
X2542070Y615950D02*
D03*
X2327440Y617220D02*
D03*
X1374940D02*
D03*
X993940D02*
D03*
X803440D02*
D03*
X922820Y425450D02*
D03*
X493560Y426720D02*
D03*
X2327440D02*
D03*
X2114080Y425450D02*
D03*
X2542070Y426720D02*
D03*
X1256830Y425450D02*
D03*
X1731810Y426720D02*
D03*
X708190D02*
D03*
X1995940Y590550D02*
D03*
X567190Y782320D02*
D03*
X781820Y400050D02*
D03*
X1424440Y591820D02*
D03*
X1043440D02*
D03*
X352560Y782320D02*
D03*
Y401320D02*
D03*
X328430Y972820D02*
D03*
X518930D02*
D03*
X709430D02*
D03*
X899930D02*
D03*
X1090430D02*
D03*
X1280930Y971550D02*
D03*
X1471430Y972820D02*
D03*
X1661930D02*
D03*
X1852430Y971550D02*
D03*
X2044200D02*
D03*
X2233430D02*
D03*
X2425200D02*
D03*
X757690Y782320D02*
D03*
X948190D02*
D03*
X1138690D02*
D03*
X1329190D02*
D03*
X1519690D02*
D03*
X1710190Y781050D02*
D03*
X1900690Y782320D02*
D03*
X2091190D02*
D03*
X2352810D02*
D03*
X401530Y591700D02*
D03*
X662440Y591820D02*
D03*
X852940D02*
D03*
X1233940D02*
D03*
X1614940D02*
D03*
X1805440D02*
D03*
X2186440D02*
D03*
X2401070Y590550D02*
D03*
X567190Y401320D02*
D03*
X1115830Y400050D02*
D03*
X1590810Y401320D02*
D03*
X1973080Y400050D02*
D03*
X2186440Y401320D02*
D03*
X2401070D02*
D03*
M02*
