G04*
G04 #@! TF.GenerationSoftware,Altium Limited,Altium Designer,23.0.1 (38)*
G04*
G04 Layer_Color=16711935*
%FSLAX44Y44*%
%MOMM*%
G71*
G04*
G04 #@! TF.SameCoordinates,415B9E50-699A-4425-B3A7-CA41C988AD1A*
G04*
G04*
G04 #@! TF.FilePolarity,Negative*
G04*
G01*
G75*
%ADD12R,3.4032X3.8032*%
%ADD13O,1.3016X2.1016*%
%ADD14O,1.3016X1.9016*%
%ADD15C,3.2032*%
%ADD16C,1.9050*%
%ADD17C,4.2672*%
%ADD18R,3.8032X3.4032*%
%ADD19C,0.7032*%
%ADD20C,1.4732*%
%ADD47R,0.9016X1.1016*%
%ADD48R,0.9652X0.9652*%
%ADD49R,0.9652X0.9652*%
%ADD50R,2.6016X1.2016*%
%ADD51R,2.4416X3.7016*%
%ADD52R,1.0922X1.4732*%
%ADD53R,1.4016X5.6016*%
%ADD54R,0.9032X1.7032*%
%ADD55R,1.3208X1.9050*%
%ADD56R,1.1032X1.9032*%
G04:AMPARAMS|DCode=57|XSize=2.0032mm|YSize=1.1032mm|CornerRadius=0mm|HoleSize=0mm|Usage=FLASHONLY|Rotation=270.000|XOffset=0mm|YOffset=0mm|HoleType=Round|Shape=Octagon|*
%AMOCTAGOND57*
4,1,8,-0.2758,-1.0016,0.2758,-1.0016,0.5516,-0.7258,0.5516,0.7258,0.2758,1.0016,-0.2758,1.0016,-0.5516,0.7258,-0.5516,-0.7258,-0.2758,-1.0016,0.0*
%
%ADD57OCTAGOND57*%

%ADD58O,1.9969X0.5425*%
%ADD59O,0.5425X1.9969*%
%ADD60R,0.4016X1.4016*%
%ADD61R,1.9032X1.1032*%
G04:AMPARAMS|DCode=62|XSize=2.0032mm|YSize=1.1032mm|CornerRadius=0mm|HoleSize=0mm|Usage=FLASHONLY|Rotation=0.000|XOffset=0mm|YOffset=0mm|HoleType=Round|Shape=Octagon|*
%AMOCTAGOND62*
4,1,8,1.0016,-0.2758,1.0016,0.2758,0.7258,0.5516,-0.7258,0.5516,-1.0016,0.2758,-1.0016,-0.2758,-0.7258,-0.5516,0.7258,-0.5516,1.0016,-0.2758,0.0*
%
%ADD62OCTAGOND62*%

%ADD63R,2.7532X2.7032*%
D12*
X980440Y447040D02*
D03*
X745529Y453390D02*
D03*
X530899Y455930D02*
D03*
X2364779Y444500D02*
D03*
X2151419Y448310D02*
D03*
X1860550Y447040D02*
D03*
D13*
X443088Y1065441D02*
D03*
X529590D02*
D03*
D14*
Y1107440D02*
D03*
X443088D02*
D03*
D15*
X2439670Y401320D02*
D03*
X2503170Y426720D02*
D03*
X2225040Y401320D02*
D03*
X2288540Y426720D02*
D03*
X2011680Y400050D02*
D03*
X2075180Y425450D02*
D03*
X1629410Y401320D02*
D03*
X1692910Y426720D02*
D03*
X1154430Y400050D02*
D03*
X1217930Y425450D02*
D03*
X820420Y400050D02*
D03*
X883920Y425450D02*
D03*
X2439670Y590550D02*
D03*
X2503170Y615950D02*
D03*
X2225040Y591820D02*
D03*
X2288540Y617220D02*
D03*
X605790Y401320D02*
D03*
X669290Y426720D02*
D03*
X391160Y401320D02*
D03*
X454660Y426720D02*
D03*
X440130Y591700D02*
D03*
X503630Y617100D02*
D03*
X2391410Y782320D02*
D03*
X2454910Y807720D02*
D03*
X2129790Y782320D02*
D03*
X2193290Y807720D02*
D03*
X1939290Y782320D02*
D03*
X2002790Y807720D02*
D03*
X1748790Y781050D02*
D03*
X1812290Y806450D02*
D03*
X1558290Y782320D02*
D03*
X1621790Y807720D02*
D03*
X1367790Y782320D02*
D03*
X1431290Y807720D02*
D03*
X1177290Y782320D02*
D03*
X1240790Y807720D02*
D03*
X986790Y782320D02*
D03*
X1050290Y807720D02*
D03*
X796290Y782320D02*
D03*
X859790Y807720D02*
D03*
X605790Y782320D02*
D03*
X669290Y807720D02*
D03*
X391160Y782320D02*
D03*
X454660Y807720D02*
D03*
X748030Y972820D02*
D03*
X811530Y998220D02*
D03*
X2463800Y971550D02*
D03*
X2527300Y996950D02*
D03*
X2272030Y971550D02*
D03*
X2335530Y996950D02*
D03*
X2082800Y971550D02*
D03*
X2146300Y996950D02*
D03*
X1891030Y971550D02*
D03*
X1954530Y996950D02*
D03*
X1700530Y972820D02*
D03*
X1764030Y998220D02*
D03*
X1510030Y972820D02*
D03*
X1573530Y998220D02*
D03*
X1319530Y971550D02*
D03*
X1383030Y996950D02*
D03*
X1129030Y972820D02*
D03*
X1192530Y998220D02*
D03*
X938530Y972820D02*
D03*
X1002030Y998220D02*
D03*
X2034540Y590550D02*
D03*
X2098040Y615950D02*
D03*
X1844040Y591820D02*
D03*
X1907540Y617220D02*
D03*
X1653540Y591820D02*
D03*
X1717040Y617220D02*
D03*
X1463040Y591820D02*
D03*
X1526540Y617220D02*
D03*
X1272540Y591820D02*
D03*
X1336040Y617220D02*
D03*
X1082040Y591820D02*
D03*
X1145540Y617220D02*
D03*
X891540Y591820D02*
D03*
X955040Y617220D02*
D03*
X701040Y591820D02*
D03*
X764540Y617220D02*
D03*
X557530Y972820D02*
D03*
X621030Y998220D02*
D03*
X367030Y972820D02*
D03*
X430530Y998220D02*
D03*
D16*
X2414270Y452120D02*
D03*
X2515870D02*
D03*
X2199640D02*
D03*
X2301240D02*
D03*
X1986280Y450850D02*
D03*
X2087880D02*
D03*
X1604010Y452120D02*
D03*
X1705610D02*
D03*
X1129030Y450850D02*
D03*
X1230630D02*
D03*
X795020D02*
D03*
X896620D02*
D03*
X2414270Y641350D02*
D03*
X2515870D02*
D03*
X2199640Y642620D02*
D03*
X2301240D02*
D03*
X580390Y452120D02*
D03*
X681990D02*
D03*
X365760D02*
D03*
X467360D02*
D03*
X414730Y642500D02*
D03*
X516330D02*
D03*
X2366010Y833120D02*
D03*
X2467610D02*
D03*
X2104390D02*
D03*
X2205990D02*
D03*
X1913890D02*
D03*
X2015490D02*
D03*
X1723390Y831850D02*
D03*
X1824990D02*
D03*
X1532890Y833120D02*
D03*
X1634490D02*
D03*
X1342390D02*
D03*
X1443990D02*
D03*
X1151890D02*
D03*
X1253490D02*
D03*
X961390D02*
D03*
X1062990D02*
D03*
X770890D02*
D03*
X872490D02*
D03*
X580390D02*
D03*
X681990D02*
D03*
X365760D02*
D03*
X467360D02*
D03*
X722630Y1023620D02*
D03*
X824230D02*
D03*
X2438400Y1022350D02*
D03*
X2540000D02*
D03*
X2246630D02*
D03*
X2348230D02*
D03*
X2057400D02*
D03*
X2159000D02*
D03*
X1865630D02*
D03*
X1967230D02*
D03*
X1675130Y1023620D02*
D03*
X1776730D02*
D03*
X1484630D02*
D03*
X1586230D02*
D03*
X1294130Y1022350D02*
D03*
X1395730D02*
D03*
X1103630Y1023620D02*
D03*
X1205230D02*
D03*
X913130D02*
D03*
X1014730D02*
D03*
X2009140Y641350D02*
D03*
X2110740D02*
D03*
X1818640Y642620D02*
D03*
X1920240D02*
D03*
X1628140D02*
D03*
X1729740D02*
D03*
X1437640D02*
D03*
X1539240D02*
D03*
X1247140D02*
D03*
X1348740D02*
D03*
X1056640D02*
D03*
X1158240D02*
D03*
X866140D02*
D03*
X967740D02*
D03*
X675640D02*
D03*
X777240D02*
D03*
X532130Y1023620D02*
D03*
X633730D02*
D03*
X341630D02*
D03*
X443230D02*
D03*
D17*
X2465070Y452120D02*
D03*
X2250440D02*
D03*
X2037080Y450850D02*
D03*
X1654810Y452120D02*
D03*
X1179830Y450850D02*
D03*
X845820D02*
D03*
X2465070Y641350D02*
D03*
X2250440Y642620D02*
D03*
X631190Y452120D02*
D03*
X416560D02*
D03*
X465530Y642500D02*
D03*
X2416810Y833120D02*
D03*
X2155190D02*
D03*
X1964690D02*
D03*
X1774190Y831850D02*
D03*
X1583690Y833120D02*
D03*
X1393190D02*
D03*
X1202690D02*
D03*
X1012190D02*
D03*
X821690D02*
D03*
X631190D02*
D03*
X416560D02*
D03*
X773430Y1023620D02*
D03*
X2489200Y1022350D02*
D03*
X2297430D02*
D03*
X2108200D02*
D03*
X1916430D02*
D03*
X1725930Y1023620D02*
D03*
X1535430D02*
D03*
X1344930Y1022350D02*
D03*
X1154430Y1023620D02*
D03*
X963930D02*
D03*
X2059940Y641350D02*
D03*
X1869440Y642620D02*
D03*
X1678940D02*
D03*
X1488440D02*
D03*
X1297940D02*
D03*
X1107440D02*
D03*
X916940D02*
D03*
X726440D02*
D03*
X582930Y1023620D02*
D03*
X392430D02*
D03*
D18*
X2465070Y501650D02*
D03*
X2250440D02*
D03*
X2037080Y500380D02*
D03*
X1654810Y501650D02*
D03*
X1179830Y500380D02*
D03*
X845820D02*
D03*
X2465070Y690880D02*
D03*
X2250440Y692150D02*
D03*
X631190Y501650D02*
D03*
X416560D02*
D03*
X465530Y692030D02*
D03*
X2416810Y882650D02*
D03*
X2155190D02*
D03*
X1964690D02*
D03*
X1774190Y881380D02*
D03*
X1583690Y882650D02*
D03*
X1393190D02*
D03*
X1202690D02*
D03*
X1012190D02*
D03*
X821690D02*
D03*
X631190D02*
D03*
X416560D02*
D03*
X773430Y1073150D02*
D03*
X2489200Y1071880D02*
D03*
X2297430D02*
D03*
X2108200D02*
D03*
X1916430D02*
D03*
X1725930Y1073150D02*
D03*
X1535430D02*
D03*
X1344930Y1071880D02*
D03*
X1154430Y1073150D02*
D03*
X963930D02*
D03*
X2059940Y690880D02*
D03*
X1869440Y692150D02*
D03*
X1678940D02*
D03*
X1488440D02*
D03*
X1297940D02*
D03*
X1107440D02*
D03*
X916940D02*
D03*
X726440D02*
D03*
X582930Y1073150D02*
D03*
X392430D02*
D03*
D19*
X924560Y894080D02*
D03*
X2175510Y476250D02*
D03*
X2200910Y508000D02*
D03*
X1897380Y463550D02*
D03*
X1574800Y528320D02*
D03*
X1436370Y703580D02*
D03*
X1499870Y462280D02*
D03*
X1478280Y535940D02*
D03*
X763270Y886460D02*
D03*
X436530Y699530D02*
D03*
X387560Y890150D02*
D03*
X579120Y887730D02*
D03*
X551180Y706120D02*
D03*
X617220Y751840D02*
D03*
X638810Y657860D02*
D03*
X623570Y698500D02*
D03*
X571500Y576580D02*
D03*
X552450Y473710D02*
D03*
X584200Y511810D02*
D03*
X591820Y552450D02*
D03*
X784860Y466090D02*
D03*
X796290Y510540D02*
D03*
X1002030Y476250D02*
D03*
X1126490Y510540D02*
D03*
X1286510Y463550D02*
D03*
X1314450Y487680D02*
D03*
X1334770Y502920D02*
D03*
D20*
X1064260Y410210D02*
D03*
X1010920Y440690D02*
D03*
X1308608Y548386D02*
D03*
X1257808Y497586D02*
D03*
X1444752Y525272D02*
D03*
X1807972Y475488D02*
D03*
X326390Y708508D02*
D03*
Y1038472D02*
D03*
X1316482Y993902D02*
D03*
X1242060Y974852D02*
D03*
X2041906Y839978D02*
D03*
X1951990Y806450D02*
D03*
X1264158Y464566D02*
D03*
X687832Y397510D02*
D03*
X1422146Y525272D02*
D03*
X1407922Y566865D02*
D03*
X864616Y394462D02*
D03*
X822960Y548640D02*
D03*
X863092Y760222D02*
D03*
X843026Y767334D02*
D03*
X812292Y917448D02*
D03*
X962152Y394716D02*
D03*
X978662Y586740D02*
D03*
Y589788D02*
D03*
X950468Y925068D02*
D03*
X1275080D02*
D03*
X1454912Y776986D02*
D03*
Y899160D02*
D03*
X1339881Y569468D02*
D03*
X1340850Y461518D02*
D03*
X1389126Y465328D02*
D03*
X1558544Y473964D02*
D03*
X1606042Y426466D02*
D03*
X1902968Y925068D02*
D03*
X2150110Y556514D02*
D03*
X2131822D02*
D03*
X2145030Y376936D02*
D03*
X1399794Y487680D02*
D03*
X2289302Y375666D02*
D03*
X2291842Y561594D02*
D03*
X2323846Y974598D02*
D03*
X2484374Y388620D02*
D03*
X1416558Y453644D02*
D03*
X2117090Y683380D02*
D03*
X2120138Y483108D02*
D03*
X2119122Y823976D02*
D03*
X2133854Y404114D02*
D03*
X1389250Y437896D02*
D03*
X1463040Y373634D02*
D03*
X1435608Y413258D02*
D03*
X478838Y1075896D02*
D03*
X2079752Y378968D02*
D03*
X1411883Y478837D02*
D03*
X1352042Y520446D02*
D03*
X455422Y369316D02*
D03*
X1374394Y448310D02*
D03*
X1391666Y543560D02*
D03*
X1394714Y370586D02*
D03*
X1500124Y890778D02*
D03*
X1374648Y411480D02*
D03*
X499872Y1074420D02*
D03*
X1405382Y758190D02*
D03*
X1358138Y391922D02*
D03*
X1399286Y694690D02*
D03*
X1364742Y512064D02*
D03*
X1358138Y589026D02*
D03*
X1356106Y369316D02*
D03*
X1266190Y559816D02*
D03*
X1262126Y532384D02*
D03*
X1338072Y569468D02*
D03*
X1366520Y753618D02*
D03*
X1207516Y451866D02*
D03*
X1205484Y579374D02*
D03*
X1532382Y559054D02*
D03*
X1561084Y912368D02*
D03*
X494792Y640842D02*
D03*
X444246Y449072D02*
D03*
X494792Y736600D02*
D03*
X1605534Y781558D02*
D03*
X1285240Y773430D02*
D03*
X1801876Y780288D02*
D03*
X1207516Y584454D02*
D03*
X1332230Y474218D02*
D03*
X1933194Y749300D02*
D03*
Y586740D02*
D03*
X1764792Y934720D02*
D03*
X957072Y816610D02*
D03*
X1729232Y570484D02*
D03*
X1710944Y394462D02*
D03*
X2216912Y768096D02*
D03*
X2148332Y924052D02*
D03*
X692912Y781812D02*
D03*
X621792Y934974D02*
D03*
X2322576Y383032D02*
D03*
D47*
X335940Y650170D02*
D03*
X345439Y673170D02*
D03*
X354940Y650170D02*
D03*
D48*
X345439Y689459D02*
D03*
Y702459D02*
D03*
X1089937Y456230D02*
D03*
Y443230D02*
D03*
X473710Y1036828D02*
D03*
X473726Y1022985D02*
D03*
X502920Y1023112D02*
D03*
X502904Y1036955D02*
D03*
D49*
X340209Y631084D02*
D03*
X353209D02*
D03*
X1529080Y537210D02*
D03*
X1516080D02*
D03*
X1531471Y369569D02*
D03*
X1544471D02*
D03*
X1320949Y461664D02*
D03*
X1307949D02*
D03*
X1320949Y444090D02*
D03*
X1307949D02*
D03*
X1321100Y426515D02*
D03*
X1308100D02*
D03*
X1320949Y382271D02*
D03*
X1307949D02*
D03*
X1321100Y408940D02*
D03*
X1308100D02*
D03*
X1320949Y496813D02*
D03*
X1307949D02*
D03*
X1320949Y479239D02*
D03*
X1307949D02*
D03*
D50*
X632950Y669692D02*
D03*
Y646693D02*
D03*
Y623693D02*
D03*
D51*
X573550Y646693D02*
D03*
D52*
X590550Y575310D02*
D03*
X609550D02*
D03*
X591209Y599441D02*
D03*
X610209D02*
D03*
X609550Y717550D02*
D03*
X590550D02*
D03*
X608941Y693419D02*
D03*
X589941D02*
D03*
D53*
X1530350Y498695D02*
D03*
Y407636D02*
D03*
D54*
X1074240Y427080D02*
D03*
Y472080D02*
D03*
X1051740Y427080D02*
D03*
Y472080D02*
D03*
D55*
X1873758Y586740D02*
D03*
X1910842D02*
D03*
X1684528D02*
D03*
X1721612D02*
D03*
X1495298D02*
D03*
X1532382D02*
D03*
X2470658D02*
D03*
X2507742D02*
D03*
X2042668Y397510D02*
D03*
X2079752D02*
D03*
X1659128D02*
D03*
X1696212D02*
D03*
X1182878D02*
D03*
X1219962D02*
D03*
X850138Y396240D02*
D03*
X887222D02*
D03*
X634238D02*
D03*
X671322D02*
D03*
X2468118Y397510D02*
D03*
X2505202D02*
D03*
X418338Y396240D02*
D03*
X455422D02*
D03*
X2252218Y397510D02*
D03*
X2289302D02*
D03*
X923798Y586740D02*
D03*
X960882D02*
D03*
X1114298D02*
D03*
X1151382D02*
D03*
X731266D02*
D03*
X768350D02*
D03*
X470408D02*
D03*
X507492D02*
D03*
X2254758D02*
D03*
X2291842D02*
D03*
X2068068D02*
D03*
X2105152D02*
D03*
X1307338D02*
D03*
X1344422D02*
D03*
X1588008Y778510D02*
D03*
X1625092D02*
D03*
X1209548Y777240D02*
D03*
X1246632D02*
D03*
X1015238D02*
D03*
X1052322D02*
D03*
X826008D02*
D03*
X863092D02*
D03*
X635508Y778510D02*
D03*
X672592D02*
D03*
X418338Y777240D02*
D03*
X455422D02*
D03*
X2423668D02*
D03*
X2460752D02*
D03*
X2160778D02*
D03*
X2197862D02*
D03*
X1971548D02*
D03*
X2008632D02*
D03*
X1397508Y778510D02*
D03*
X1434592D02*
D03*
X1781048Y777240D02*
D03*
X1818132D02*
D03*
X1918208Y967740D02*
D03*
X1955292D02*
D03*
X2111248D02*
D03*
X2148332D02*
D03*
X2300478D02*
D03*
X2337562D02*
D03*
X2493518D02*
D03*
X2530602D02*
D03*
X775208D02*
D03*
X812292D02*
D03*
X1727708D02*
D03*
X1764792D02*
D03*
X584708D02*
D03*
X621792D02*
D03*
X1537208Y969010D02*
D03*
X1574292D02*
D03*
X1156208Y967740D02*
D03*
X1193292D02*
D03*
X1349248D02*
D03*
X1386332D02*
D03*
X965708D02*
D03*
X1002792D02*
D03*
X394208D02*
D03*
X431292D02*
D03*
D56*
X987940Y418540D02*
D03*
X972940D02*
D03*
Y475540D02*
D03*
X753029Y424890D02*
D03*
X738028D02*
D03*
Y481890D02*
D03*
X538399Y427430D02*
D03*
X523399D02*
D03*
Y484430D02*
D03*
X2372279Y416000D02*
D03*
X2357278D02*
D03*
Y473000D02*
D03*
X2158919Y419810D02*
D03*
X2143918D02*
D03*
Y476810D02*
D03*
X1868050Y418540D02*
D03*
X1853050D02*
D03*
Y475540D02*
D03*
D57*
X987940Y476040D02*
D03*
X753029Y482390D02*
D03*
X538399Y484930D02*
D03*
X2372279Y473500D02*
D03*
X2158919Y477310D02*
D03*
X1868050Y476040D02*
D03*
D58*
X1474564Y422148D02*
D03*
X1357536Y430022D02*
D03*
X1474564Y477266D02*
D03*
Y414274D02*
D03*
X1357536Y406400D02*
D03*
Y453644D02*
D03*
Y461518D02*
D03*
Y469392D02*
D03*
Y477266D02*
D03*
Y485140D02*
D03*
X1474564Y430022D02*
D03*
Y437896D02*
D03*
Y445770D02*
D03*
Y453644D02*
D03*
Y461518D02*
D03*
Y469392D02*
D03*
X1357536Y414274D02*
D03*
Y422148D02*
D03*
X1474564Y485140D02*
D03*
Y406400D02*
D03*
X1357536Y445770D02*
D03*
Y437896D02*
D03*
D59*
X1431798Y387256D02*
D03*
X1439672D02*
D03*
Y504284D02*
D03*
X1423924Y387256D02*
D03*
X1376680Y504284D02*
D03*
X1400302Y387256D02*
D03*
X1392428D02*
D03*
X1384554D02*
D03*
X1376680D02*
D03*
X1416050Y504284D02*
D03*
X1423924D02*
D03*
X1431798D02*
D03*
X1392428D02*
D03*
X1400302D02*
D03*
X1408176D02*
D03*
X1447546D02*
D03*
X1455420D02*
D03*
Y387256D02*
D03*
X1416050D02*
D03*
X1447546D02*
D03*
X1408176D02*
D03*
X1384554Y504284D02*
D03*
D60*
X483839Y1057758D02*
D03*
X493839D02*
D03*
X488838D02*
D03*
X478838D02*
D03*
X452839D02*
D03*
X519839D02*
D03*
X516839D02*
D03*
X455839D02*
D03*
X473839D02*
D03*
X503839D02*
D03*
X460840D02*
D03*
X511841D02*
D03*
X508838D02*
D03*
X463840D02*
D03*
X468838D02*
D03*
X498836D02*
D03*
D61*
X388060Y875150D02*
D03*
X2517700Y1079380D02*
D03*
X2445310Y890150D02*
D03*
X437030Y684530D02*
D03*
X1459940Y684650D02*
D03*
X1326440Y699650D02*
D03*
X2436570Y683380D02*
D03*
X2278940Y699650D02*
D03*
X388060Y494150D02*
D03*
X2493570Y698380D02*
D03*
X2221940Y494150D02*
D03*
X2065580Y507880D02*
D03*
X2493570Y509150D02*
D03*
X363930Y1065650D02*
D03*
X2088440Y698380D02*
D03*
X2221940Y684650D02*
D03*
X2031440Y683380D02*
D03*
X1897940Y699650D02*
D03*
X659690Y890150D02*
D03*
X793190Y875150D02*
D03*
X602690D02*
D03*
X445060Y890150D02*
D03*
X874320Y507880D02*
D03*
X1151330Y492880D02*
D03*
X817320D02*
D03*
X659690Y509150D02*
D03*
X1516940Y699650D02*
D03*
X1650440Y684650D02*
D03*
X1135940Y699650D02*
D03*
X1269440Y684650D02*
D03*
X1078940D02*
D03*
X945440Y699650D02*
D03*
X445060Y509150D02*
D03*
X602690Y494150D02*
D03*
X1040690Y890150D02*
D03*
X1174190Y875150D02*
D03*
X983690D02*
D03*
X850190Y890150D02*
D03*
X2278940Y509150D02*
D03*
X2436570Y494150D02*
D03*
X992430Y1080650D02*
D03*
X1125930Y1065650D02*
D03*
X935430D02*
D03*
X801930Y1080650D02*
D03*
X2388310Y875150D02*
D03*
X2183690Y890150D02*
D03*
X420930Y1080650D02*
D03*
X554430Y1065650D02*
D03*
X1231190Y890150D02*
D03*
X1364690Y875150D02*
D03*
X1421690Y890150D02*
D03*
X1555190Y875150D02*
D03*
X1612190Y890150D02*
D03*
X1745690Y873880D02*
D03*
X1944930Y1079380D02*
D03*
X2079700Y1064380D02*
D03*
X1887930D02*
D03*
X1754430Y1080650D02*
D03*
X1802690Y888880D02*
D03*
X1936190Y875150D02*
D03*
X1993190Y890150D02*
D03*
X2126690Y875150D02*
D03*
X2008580Y492880D02*
D03*
X1683310Y509150D02*
D03*
X1840940Y684650D02*
D03*
X1707440Y699650D02*
D03*
X2136700Y1079380D02*
D03*
X2268930Y1064380D02*
D03*
X2325930Y1079380D02*
D03*
X2460700Y1064380D02*
D03*
X611430Y1080650D02*
D03*
X744930Y1065650D02*
D03*
X1182930Y1080650D02*
D03*
X1316430Y1064380D02*
D03*
X494030Y699530D02*
D03*
X697940Y684650D02*
D03*
X1208330Y507880D02*
D03*
X1626310Y494150D02*
D03*
X1373430Y1079380D02*
D03*
X1506930Y1065650D02*
D03*
X1697430D02*
D03*
X1563930Y1080650D02*
D03*
X888440Y684650D02*
D03*
X754940Y699650D02*
D03*
X2088440Y683380D02*
D03*
X659690Y875150D02*
D03*
X874320Y492880D02*
D03*
X1516940Y684650D02*
D03*
X1135940D02*
D03*
X445060Y875150D02*
D03*
Y494150D02*
D03*
X1040690Y875150D02*
D03*
X2278940Y494150D02*
D03*
X992430Y1065650D02*
D03*
X2445310Y875150D02*
D03*
X420930Y1065650D02*
D03*
X1231190Y875150D02*
D03*
X1421690D02*
D03*
X1612190D02*
D03*
X1944930Y1064380D02*
D03*
X1802690Y873880D02*
D03*
X1993190Y875150D02*
D03*
X2183690D02*
D03*
X2065580Y492880D02*
D03*
X1897940Y684650D02*
D03*
X1707440D02*
D03*
X2136700Y1064380D02*
D03*
X2325930D02*
D03*
X611430Y1065650D02*
D03*
X1182930D02*
D03*
X2493570Y494150D02*
D03*
X850190Y875150D02*
D03*
X494030Y684530D02*
D03*
X2493570Y683380D02*
D03*
X1208330Y492880D02*
D03*
X1683310Y494150D02*
D03*
X1373430Y1064380D02*
D03*
X1754430Y1065650D02*
D03*
X2278940Y684650D02*
D03*
X1326440D02*
D03*
X801930Y1065650D02*
D03*
X659690Y494150D02*
D03*
X945440Y684650D02*
D03*
X1563930Y1065650D02*
D03*
X754940Y684650D02*
D03*
X2517700Y1064380D02*
D03*
D62*
X2030940Y698380D02*
D03*
X602190Y890150D02*
D03*
X816820Y507880D02*
D03*
X1459440Y699650D02*
D03*
X1078440D02*
D03*
X387560Y890150D02*
D03*
Y509150D02*
D03*
X983190Y890150D02*
D03*
X2221440Y509150D02*
D03*
X934930Y1080650D02*
D03*
X2387810Y890150D02*
D03*
X363430Y1080650D02*
D03*
X1173690Y890150D02*
D03*
X1364190D02*
D03*
X1554690D02*
D03*
X1887430Y1079380D02*
D03*
X1745190Y888880D02*
D03*
X1935690Y890150D02*
D03*
X2126190D02*
D03*
X2008080Y507880D02*
D03*
X1840440Y699650D02*
D03*
X1649940D02*
D03*
X2079200Y1079380D02*
D03*
X2268430D02*
D03*
X553930Y1080650D02*
D03*
X1125430D02*
D03*
X2436070Y509150D02*
D03*
X792690Y890150D02*
D03*
X436530Y699530D02*
D03*
X2436070Y698380D02*
D03*
X1150830Y507880D02*
D03*
X1625810Y509150D02*
D03*
X1315930Y1079380D02*
D03*
X1696930Y1080650D02*
D03*
X2221440Y699650D02*
D03*
X1268940D02*
D03*
X744430Y1080650D02*
D03*
X602190Y509150D02*
D03*
X887940Y699650D02*
D03*
X1506430Y1080650D02*
D03*
X697440Y699650D02*
D03*
X2460200Y1079380D02*
D03*
D63*
X1040930Y998220D02*
D03*
X469430D02*
D03*
X1993430Y996950D02*
D03*
X2185200D02*
D03*
X2374430D02*
D03*
X659930Y998220D02*
D03*
X1231430D02*
D03*
X1421930Y996950D02*
D03*
X1802930Y998220D02*
D03*
X850430D02*
D03*
X1612430D02*
D03*
X2566200Y996950D02*
D03*
X708190Y807720D02*
D03*
X493560D02*
D03*
X1089190D02*
D03*
X2493810D02*
D03*
X1279690D02*
D03*
X1470190D02*
D03*
X1660690D02*
D03*
X1851190Y806450D02*
D03*
X2041690Y807720D02*
D03*
X2232190D02*
D03*
X898690D02*
D03*
X2136940Y615950D02*
D03*
X1565440Y617220D02*
D03*
X1184440D02*
D03*
X1946440D02*
D03*
X1755940D02*
D03*
X542530Y617100D02*
D03*
X2542070Y615950D02*
D03*
X2327440Y617220D02*
D03*
X1374940D02*
D03*
X993940D02*
D03*
X803440D02*
D03*
X922820Y425450D02*
D03*
X493560Y426720D02*
D03*
X2327440D02*
D03*
X2114080Y425450D02*
D03*
X2542070Y426720D02*
D03*
X1256830Y425450D02*
D03*
X1731810Y426720D02*
D03*
X708190D02*
D03*
X1995940Y590550D02*
D03*
X567190Y782320D02*
D03*
X781820Y400050D02*
D03*
X1424440Y591820D02*
D03*
X1043440D02*
D03*
X352560Y782320D02*
D03*
Y401320D02*
D03*
X328430Y972820D02*
D03*
X518930D02*
D03*
X709430D02*
D03*
X899930D02*
D03*
X1090430D02*
D03*
X1280930Y971550D02*
D03*
X1471430Y972820D02*
D03*
X1661930D02*
D03*
X1852430Y971550D02*
D03*
X2044200D02*
D03*
X2233430D02*
D03*
X2425200D02*
D03*
X757690Y782320D02*
D03*
X948190D02*
D03*
X1138690D02*
D03*
X1329190D02*
D03*
X1519690D02*
D03*
X1710190Y781050D02*
D03*
X1900690Y782320D02*
D03*
X2091190D02*
D03*
X2352810D02*
D03*
X401530Y591700D02*
D03*
X662440Y591820D02*
D03*
X852940D02*
D03*
X1233940D02*
D03*
X1614940D02*
D03*
X1805440D02*
D03*
X2186440D02*
D03*
X2401070Y590550D02*
D03*
X567190Y401320D02*
D03*
X1115830Y400050D02*
D03*
X1590810Y401320D02*
D03*
X1973080Y400050D02*
D03*
X2186440Y401320D02*
D03*
X2401070D02*
D03*
M02*
