G04*
G04 #@! TF.GenerationSoftware,Altium Limited,Altium Designer,23.0.1 (38)*
G04*
G04 Layer_Color=32896*
%FSLAX44Y44*%
%MOMM*%
G71*
G04*
G04 #@! TF.SameCoordinates,415B9E50-699A-4425-B3A7-CA41C988AD1A*
G04*
G04*
G04 #@! TF.FilePolarity,Positive*
G04*
G01*
G75*
%ADD11C,0.2540*%
%ADD64C,0.1778*%
%ADD65C,0.3000*%
%ADD66C,0.2000*%
%ADD67C,0.2032*%
%ADD68C,0.1524*%
%ADD69R,0.7620X0.2540*%
D11*
X330440Y668670D02*
X339080D01*
X330440Y658670D02*
Y668670D01*
X342301Y654670D02*
X348580D01*
X351800Y668670D02*
X360440D01*
Y658670D02*
Y668670D01*
X1902247Y580441D02*
Y593039D01*
X1897126Y580441D02*
Y593039D01*
X1881845Y593852D02*
X1902247D01*
X1881886Y580390D02*
Y593039D01*
X1881845Y579882D02*
X1902247D01*
X1713017Y580441D02*
Y593039D01*
X1707896Y580441D02*
Y593039D01*
X1692615Y593852D02*
X1713017D01*
X1692656Y580390D02*
Y593039D01*
X1692615Y579882D02*
X1713017D01*
X1523787Y580441D02*
Y593039D01*
X1518666Y580441D02*
Y593039D01*
X1503385Y593852D02*
X1523787D01*
X1503426Y580390D02*
Y593039D01*
X1503385Y579882D02*
X1523787D01*
X2499147Y580441D02*
Y593039D01*
X2494026Y580441D02*
Y593039D01*
X2478745Y593852D02*
X2499147D01*
X2478786Y580390D02*
Y593039D01*
X2478745Y579882D02*
X2499147D01*
X2071157Y391211D02*
Y403809D01*
X2066036Y391211D02*
Y403809D01*
X2050755Y404622D02*
X2071157D01*
X2050796Y391160D02*
Y403809D01*
X2050755Y390652D02*
X2071157D01*
X1687617Y391211D02*
Y403809D01*
X1682496Y391211D02*
Y403809D01*
X1667215Y404622D02*
X1687617D01*
X1667256Y391160D02*
Y403809D01*
X1667215Y390652D02*
X1687617D01*
X1211367Y391211D02*
Y403809D01*
X1206246Y391211D02*
Y403809D01*
X1190965Y404622D02*
X1211367D01*
X1191006Y391160D02*
Y403809D01*
X1190965Y390652D02*
X1211367D01*
X878627Y389941D02*
Y402539D01*
X873506Y389941D02*
Y402539D01*
X858225Y403352D02*
X878627D01*
X858266Y389890D02*
Y402539D01*
X858225Y389382D02*
X878627D01*
X662727Y389941D02*
Y402539D01*
X657606Y389941D02*
Y402539D01*
X642325Y403352D02*
X662727D01*
X642366Y389890D02*
Y402539D01*
X642325Y389382D02*
X662727D01*
X2496607Y391211D02*
Y403809D01*
X2491486Y391211D02*
Y403809D01*
X2476205Y404622D02*
X2496607D01*
X2476246Y391160D02*
Y403809D01*
X2476205Y390652D02*
X2496607D01*
X446827Y389941D02*
Y402539D01*
X441706Y389941D02*
Y402539D01*
X426425Y403352D02*
X446827D01*
X426466Y389890D02*
Y402539D01*
X426425Y389382D02*
X446827D01*
X2280707Y391211D02*
Y403809D01*
X2275586Y391211D02*
Y403809D01*
X2260305Y404622D02*
X2280707D01*
X2260346Y391160D02*
Y403809D01*
X2260305Y390652D02*
X2280707D01*
X952287Y580441D02*
Y593039D01*
X947166Y580441D02*
Y593039D01*
X931885Y593852D02*
X952287D01*
X931926Y580390D02*
Y593039D01*
X931885Y579882D02*
X952287D01*
X1142787Y580441D02*
Y593039D01*
X1137666Y580441D02*
Y593039D01*
X1122385Y593852D02*
X1142787D01*
X1122426Y580390D02*
Y593039D01*
X1122385Y579882D02*
X1142787D01*
X759755Y580441D02*
Y593039D01*
X754634Y580441D02*
Y593039D01*
X739353Y593852D02*
X759755D01*
X739394Y580390D02*
Y593039D01*
X739353Y579882D02*
X759755D01*
X498897Y580441D02*
Y593039D01*
X493776Y580441D02*
Y593039D01*
X478495Y593852D02*
X498897D01*
X478536Y580390D02*
Y593039D01*
X478495Y579882D02*
X498897D01*
X2283247Y580441D02*
Y593039D01*
X2278126Y580441D02*
Y593039D01*
X2262845Y593852D02*
X2283247D01*
X2262886Y580390D02*
Y593039D01*
X2262845Y579882D02*
X2283247D01*
X2096557Y580441D02*
Y593039D01*
X2091436Y580441D02*
Y593039D01*
X2076155Y593852D02*
X2096557D01*
X2076196Y580390D02*
Y593039D01*
X2076155Y579882D02*
X2096557D01*
X1335827Y580441D02*
Y593039D01*
X1330706Y580441D02*
Y593039D01*
X1315425Y593852D02*
X1335827D01*
X1315466Y580390D02*
Y593039D01*
X1315425Y579882D02*
X1335827D01*
X1616497Y772211D02*
Y784809D01*
X1611376Y772211D02*
Y784809D01*
X1596095Y785622D02*
X1616497D01*
X1596136Y772160D02*
Y784809D01*
X1596095Y771652D02*
X1616497D01*
X1238037Y770941D02*
Y783539D01*
X1232916Y770941D02*
Y783539D01*
X1217635Y784352D02*
X1238037D01*
X1217676Y770890D02*
Y783539D01*
X1217635Y770382D02*
X1238037D01*
X1043727Y770941D02*
Y783539D01*
X1038606Y770941D02*
Y783539D01*
X1023325Y784352D02*
X1043727D01*
X1023366Y770890D02*
Y783539D01*
X1023325Y770382D02*
X1043727D01*
X854497Y770941D02*
Y783539D01*
X849376Y770941D02*
Y783539D01*
X834095Y784352D02*
X854497D01*
X834136Y770890D02*
Y783539D01*
X834095Y770382D02*
X854497D01*
X663997Y772211D02*
Y784809D01*
X658876Y772211D02*
Y784809D01*
X643595Y785622D02*
X663997D01*
X643636Y772160D02*
Y784809D01*
X643595Y771652D02*
X663997D01*
X446827Y770941D02*
Y783539D01*
X441706Y770941D02*
Y783539D01*
X426425Y784352D02*
X446827D01*
X426466Y770890D02*
Y783539D01*
X426425Y770382D02*
X446827D01*
X2452157Y770941D02*
Y783539D01*
X2447036Y770941D02*
Y783539D01*
X2431755Y784352D02*
X2452157D01*
X2431796Y770890D02*
Y783539D01*
X2431755Y770382D02*
X2452157D01*
X2189267Y770941D02*
Y783539D01*
X2184146Y770941D02*
Y783539D01*
X2168865Y784352D02*
X2189267D01*
X2168906Y770890D02*
Y783539D01*
X2168865Y770382D02*
X2189267D01*
X2000037Y770941D02*
Y783539D01*
X1994916Y770941D02*
Y783539D01*
X1979635Y784352D02*
X2000037D01*
X1979676Y770890D02*
Y783539D01*
X1979635Y770382D02*
X2000037D01*
X1425997Y772211D02*
Y784809D01*
X1420876Y772211D02*
Y784809D01*
X1405595Y785622D02*
X1425997D01*
X1405636Y772160D02*
Y784809D01*
X1405595Y771652D02*
X1425997D01*
X1809537Y770941D02*
Y783539D01*
X1804416Y770941D02*
Y783539D01*
X1789135Y784352D02*
X1809537D01*
X1789176Y770890D02*
Y783539D01*
X1789135Y770382D02*
X1809537D01*
X1946697Y961441D02*
Y974039D01*
X1941576Y961441D02*
Y974039D01*
X1926295Y974852D02*
X1946697D01*
X1926336Y961390D02*
Y974039D01*
X1926295Y960882D02*
X1946697D01*
X2139737Y961441D02*
Y974039D01*
X2134616Y961441D02*
Y974039D01*
X2119335Y974852D02*
X2139737D01*
X2119376Y961390D02*
Y974039D01*
X2119335Y960882D02*
X2139737D01*
X2328967Y961441D02*
Y974039D01*
X2323846Y961441D02*
Y974039D01*
X2308565Y974852D02*
X2328967D01*
X2308606Y961390D02*
Y974039D01*
X2308565Y960882D02*
X2328967D01*
X2522007Y961441D02*
Y974039D01*
X2516886Y961441D02*
Y974039D01*
X2501605Y974852D02*
X2522007D01*
X2501646Y961390D02*
Y974039D01*
X2501605Y960882D02*
X2522007D01*
X803697Y961441D02*
Y974039D01*
X798576Y961441D02*
Y974039D01*
X783295Y974852D02*
X803697D01*
X783336Y961390D02*
Y974039D01*
X783295Y960882D02*
X803697D01*
X1756197Y961441D02*
Y974039D01*
X1751076Y961441D02*
Y974039D01*
X1735795Y974852D02*
X1756197D01*
X1735836Y961390D02*
Y974039D01*
X1735795Y960882D02*
X1756197D01*
X613197Y961441D02*
Y974039D01*
X608076Y961441D02*
Y974039D01*
X592795Y974852D02*
X613197D01*
X592836Y961390D02*
Y974039D01*
X592795Y960882D02*
X613197D01*
X1565697Y962711D02*
Y975309D01*
X1560576Y962711D02*
Y975309D01*
X1545295Y976122D02*
X1565697D01*
X1545336Y962660D02*
Y975309D01*
X1545295Y962152D02*
X1565697D01*
X1184697Y961441D02*
Y974039D01*
X1179576Y961441D02*
Y974039D01*
X1164295Y974852D02*
X1184697D01*
X1164336Y961390D02*
Y974039D01*
X1164295Y960882D02*
X1184697D01*
X1377737Y961441D02*
Y974039D01*
X1372616Y961441D02*
Y974039D01*
X1357335Y974852D02*
X1377737D01*
X1357376Y961390D02*
Y974039D01*
X1357335Y960882D02*
X1377737D01*
X994197Y961441D02*
Y974039D01*
X989076Y961441D02*
Y974039D01*
X973795Y974852D02*
X994197D01*
X973836Y961390D02*
Y974039D01*
X973795Y960882D02*
X994197D01*
X422697Y961441D02*
Y974039D01*
X417576Y961441D02*
Y974039D01*
X402295Y974852D02*
X422697D01*
X402336Y961390D02*
Y974039D01*
X402295Y960882D02*
X422697D01*
X441649Y1077626D02*
Y1096256D01*
Y1133439D02*
X531049D01*
X441649Y1118627D02*
Y1133439D01*
X531049Y1077623D02*
Y1096259D01*
Y1118623D02*
Y1133439D01*
X1506217Y524507D02*
X1496060Y509272D01*
Y524507D02*
X1506217Y509272D01*
X1490982D02*
X1485903D01*
X1488442D01*
Y524507D01*
X1490982Y521968D01*
X576577Y701038D02*
Y688342D01*
X574038Y685803D01*
X568959D01*
X566420Y688342D01*
Y701038D01*
X561342Y685803D02*
X556263D01*
X558802D01*
Y701038D01*
X561342Y698498D01*
X1026162Y421649D02*
X1041397D01*
Y429267D01*
X1038858Y431806D01*
X1033780D01*
X1031241Y429267D01*
Y421649D01*
Y426727D02*
X1026162Y431806D01*
X1041397Y447041D02*
Y436884D01*
X1026162D01*
Y447041D01*
X1033780Y436884D02*
Y441963D01*
X1038858Y462276D02*
X1041397Y459737D01*
Y454658D01*
X1038858Y452119D01*
X1036319D01*
X1033780Y454658D01*
Y459737D01*
X1031241Y462276D01*
X1028702D01*
X1026162Y459737D01*
Y454658D01*
X1028702Y452119D01*
X1041397Y467354D02*
Y477511D01*
Y472433D01*
X1026162D01*
X356872Y685804D02*
X372108D01*
Y693422D01*
X369568Y695961D01*
X364490D01*
X361951Y693422D01*
Y685804D01*
Y690882D02*
X356872Y695961D01*
X372108Y711196D02*
Y701039D01*
X364490D01*
X367029Y706117D01*
Y708657D01*
X364490Y711196D01*
X359412D01*
X356872Y708657D01*
Y703578D01*
X359412Y701039D01*
X304804Y637537D02*
Y622302D01*
X312422D01*
X314961Y624842D01*
Y629920D01*
X312422Y632459D01*
X304804D01*
X309883D02*
X314961Y637537D01*
X327657D02*
Y622302D01*
X320039Y629920D01*
X330196D01*
X1100099Y438303D02*
X1115334D01*
Y445921D01*
X1112795Y448460D01*
X1107717D01*
X1105178Y445921D01*
Y438303D01*
Y443382D02*
X1100099Y448460D01*
X1112795Y453538D02*
X1115334Y456078D01*
Y461156D01*
X1112795Y463695D01*
X1110256D01*
X1107717Y461156D01*
Y458617D01*
Y461156D01*
X1105178Y463695D01*
X1102638D01*
X1100099Y461156D01*
Y456078D01*
X1102638Y453538D01*
X312422Y661670D02*
X322578D01*
X325117Y659131D01*
Y654053D01*
X322578Y651513D01*
X312422D01*
X309883Y654053D01*
Y659131D01*
X314961Y656592D02*
X309883Y661670D01*
Y659131D02*
X312422Y661670D01*
X309883Y666748D02*
Y671827D01*
Y669288D01*
X325117D01*
X322578Y666748D01*
X2534661Y363982D02*
X2519426D01*
Y371600D01*
X2521965Y374139D01*
X2532122D01*
X2534661Y371600D01*
Y363982D01*
X2519426Y386835D02*
X2534661D01*
X2527043Y379217D01*
Y389374D01*
X2519426Y404609D02*
Y394452D01*
X2529583Y404609D01*
X2532122D01*
X2534661Y402070D01*
Y396991D01*
X2532122Y394452D01*
X2318761Y369062D02*
X2303526D01*
Y376679D01*
X2306065Y379219D01*
X2316222D01*
X2318761Y376679D01*
Y369062D01*
X2303526Y391915D02*
X2318761D01*
X2311143Y384297D01*
Y394454D01*
X2303526Y399532D02*
Y404610D01*
Y402071D01*
X2318761D01*
X2316222Y399532D01*
X2109211Y363982D02*
X2093976D01*
Y371600D01*
X2096515Y374139D01*
X2106672D01*
X2109211Y371600D01*
Y363982D01*
X2093976Y386835D02*
X2109211D01*
X2101593Y379217D01*
Y389374D01*
X2106672Y394452D02*
X2109211Y396991D01*
Y402070D01*
X2106672Y404609D01*
X2096515D01*
X2093976Y402070D01*
Y396991D01*
X2096515Y394452D01*
X2106672D01*
X1725671Y363982D02*
X1710436D01*
Y371600D01*
X1712975Y374139D01*
X1723132D01*
X1725671Y371600D01*
Y363982D01*
X1723132Y379217D02*
X1725671Y381756D01*
Y386835D01*
X1723132Y389374D01*
X1720593D01*
X1718053Y386835D01*
Y384295D01*
Y386835D01*
X1715514Y389374D01*
X1712975D01*
X1710436Y386835D01*
Y381756D01*
X1712975Y379217D01*
Y394452D02*
X1710436Y396991D01*
Y402070D01*
X1712975Y404609D01*
X1723132D01*
X1725671Y402070D01*
Y396991D01*
X1723132Y394452D01*
X1720593D01*
X1718053Y396991D01*
Y404609D01*
X1249421Y363982D02*
X1234186D01*
Y371600D01*
X1236725Y374139D01*
X1246882D01*
X1249421Y371600D01*
Y363982D01*
X1246882Y379217D02*
X1249421Y381756D01*
Y386835D01*
X1246882Y389374D01*
X1244343D01*
X1241804Y386835D01*
Y384295D01*
Y386835D01*
X1239264Y389374D01*
X1236725D01*
X1234186Y386835D01*
Y381756D01*
X1236725Y379217D01*
X1246882Y394452D02*
X1249421Y396991D01*
Y402070D01*
X1246882Y404609D01*
X1244343D01*
X1241804Y402070D01*
X1239264Y404609D01*
X1236725D01*
X1234186Y402070D01*
Y396991D01*
X1236725Y394452D01*
X1239264D01*
X1241804Y396991D01*
X1244343Y394452D01*
X1246882D01*
X1241804Y396991D02*
Y402070D01*
X916681Y362712D02*
X901446D01*
Y370330D01*
X903985Y372869D01*
X914142D01*
X916681Y370330D01*
Y362712D01*
X914142Y377947D02*
X916681Y380486D01*
Y385565D01*
X914142Y388104D01*
X911603D01*
X909063Y385565D01*
Y383025D01*
Y385565D01*
X906524Y388104D01*
X903985D01*
X901446Y385565D01*
Y380486D01*
X903985Y377947D01*
X916681Y393182D02*
Y403339D01*
X914142D01*
X903985Y393182D01*
X901446D01*
X700781Y362712D02*
X685546D01*
Y370330D01*
X688085Y372869D01*
X698242D01*
X700781Y370330D01*
Y362712D01*
X698242Y377947D02*
X700781Y380486D01*
Y385565D01*
X698242Y388104D01*
X695703D01*
X693164Y385565D01*
Y383025D01*
Y385565D01*
X690624Y388104D01*
X688085D01*
X685546Y385565D01*
Y380486D01*
X688085Y377947D01*
X700781Y403339D02*
X698242Y398260D01*
X693164Y393182D01*
X688085D01*
X685546Y395721D01*
Y400800D01*
X688085Y403339D01*
X690624D01*
X693164Y400800D01*
Y393182D01*
X484881Y362712D02*
X469646D01*
Y370330D01*
X472185Y372869D01*
X482342D01*
X484881Y370330D01*
Y362712D01*
X482342Y377947D02*
X484881Y380486D01*
Y385565D01*
X482342Y388104D01*
X479803D01*
X477263Y385565D01*
Y383025D01*
Y385565D01*
X474724Y388104D01*
X472185D01*
X469646Y385565D01*
Y380486D01*
X472185Y377947D01*
X484881Y403339D02*
Y393182D01*
X477263D01*
X479803Y398260D01*
Y400800D01*
X477263Y403339D01*
X472185D01*
X469646Y400800D01*
Y395721D01*
X472185Y393182D01*
X2537201Y553212D02*
X2521966D01*
Y560830D01*
X2524505Y563369D01*
X2534662D01*
X2537201Y560830D01*
Y553212D01*
X2534662Y568447D02*
X2537201Y570986D01*
Y576065D01*
X2534662Y578604D01*
X2532123D01*
X2529583Y576065D01*
Y573525D01*
Y576065D01*
X2527044Y578604D01*
X2524505D01*
X2521966Y576065D01*
Y570986D01*
X2524505Y568447D01*
X2521966Y591300D02*
X2537201D01*
X2529583Y583682D01*
Y593839D01*
X2321301Y553212D02*
X2306066D01*
Y560830D01*
X2308605Y563369D01*
X2318762D01*
X2321301Y560830D01*
Y553212D01*
X2318762Y568447D02*
X2321301Y570986D01*
Y576065D01*
X2318762Y578604D01*
X2316223D01*
X2313683Y576065D01*
Y573525D01*
Y576065D01*
X2311144Y578604D01*
X2308605D01*
X2306066Y576065D01*
Y570986D01*
X2308605Y568447D01*
X2318762Y583682D02*
X2321301Y586221D01*
Y591300D01*
X2318762Y593839D01*
X2316223D01*
X2313683Y591300D01*
Y588760D01*
Y591300D01*
X2311144Y593839D01*
X2308605D01*
X2306066Y591300D01*
Y586221D01*
X2308605Y583682D01*
X2134611Y553212D02*
X2119376D01*
Y560830D01*
X2121915Y563369D01*
X2132072D01*
X2134611Y560830D01*
Y553212D01*
X2132072Y568447D02*
X2134611Y570986D01*
Y576065D01*
X2132072Y578604D01*
X2129533D01*
X2126994Y576065D01*
Y573525D01*
Y576065D01*
X2124454Y578604D01*
X2121915D01*
X2119376Y576065D01*
Y570986D01*
X2121915Y568447D01*
X2119376Y593839D02*
Y583682D01*
X2129533Y593839D01*
X2132072D01*
X2134611Y591300D01*
Y586221D01*
X2132072Y583682D01*
X1940301Y558292D02*
X1925066D01*
Y565910D01*
X1927605Y568449D01*
X1937762D01*
X1940301Y565910D01*
Y558292D01*
X1937762Y573527D02*
X1940301Y576066D01*
Y581145D01*
X1937762Y583684D01*
X1935223D01*
X1932684Y581145D01*
Y578605D01*
Y581145D01*
X1930144Y583684D01*
X1927605D01*
X1925066Y581145D01*
Y576066D01*
X1927605Y573527D01*
X1925066Y588762D02*
Y593840D01*
Y591301D01*
X1940301D01*
X1937762Y588762D01*
X1751071Y553212D02*
X1735836D01*
Y560830D01*
X1738375Y563369D01*
X1748532D01*
X1751071Y560830D01*
Y553212D01*
X1748532Y568447D02*
X1751071Y570986D01*
Y576065D01*
X1748532Y578604D01*
X1745993D01*
X1743454Y576065D01*
Y573525D01*
Y576065D01*
X1740914Y578604D01*
X1738375D01*
X1735836Y576065D01*
Y570986D01*
X1738375Y568447D01*
X1748532Y583682D02*
X1751071Y586221D01*
Y591300D01*
X1748532Y593839D01*
X1738375D01*
X1735836Y591300D01*
Y586221D01*
X1738375Y583682D01*
X1748532D01*
X1561841Y553212D02*
X1546606D01*
Y560830D01*
X1549145Y563369D01*
X1559302D01*
X1561841Y560830D01*
Y553212D01*
X1546606Y578604D02*
Y568447D01*
X1556763Y578604D01*
X1559302D01*
X1561841Y576065D01*
Y570986D01*
X1559302Y568447D01*
X1549145Y583682D02*
X1546606Y586221D01*
Y591300D01*
X1549145Y593839D01*
X1559302D01*
X1561841Y591300D01*
Y586221D01*
X1559302Y583682D01*
X1556763D01*
X1554223Y586221D01*
Y593839D01*
X1373881Y553212D02*
X1358646D01*
Y560830D01*
X1361185Y563369D01*
X1371342D01*
X1373881Y560830D01*
Y553212D01*
X1358646Y578604D02*
Y568447D01*
X1368803Y578604D01*
X1371342D01*
X1373881Y576065D01*
Y570986D01*
X1371342Y568447D01*
Y583682D02*
X1373881Y586221D01*
Y591300D01*
X1371342Y593839D01*
X1368803D01*
X1366263Y591300D01*
X1363724Y593839D01*
X1361185D01*
X1358646Y591300D01*
Y586221D01*
X1361185Y583682D01*
X1363724D01*
X1366263Y586221D01*
X1368803Y583682D01*
X1371342D01*
X1366263Y586221D02*
Y591300D01*
X1180841Y553212D02*
X1165606D01*
Y560830D01*
X1168145Y563369D01*
X1178302D01*
X1180841Y560830D01*
Y553212D01*
X1165606Y578604D02*
Y568447D01*
X1175763Y578604D01*
X1178302D01*
X1180841Y576065D01*
Y570986D01*
X1178302Y568447D01*
X1180841Y583682D02*
Y593839D01*
X1178302D01*
X1168145Y583682D01*
X1165606D01*
X990341Y553212D02*
X975106D01*
Y560830D01*
X977645Y563369D01*
X987802D01*
X990341Y560830D01*
Y553212D01*
X975106Y578604D02*
Y568447D01*
X985263Y578604D01*
X987802D01*
X990341Y576065D01*
Y570986D01*
X987802Y568447D01*
X990341Y593839D02*
X987802Y588760D01*
X982723Y583682D01*
X977645D01*
X975106Y586221D01*
Y591300D01*
X977645Y593839D01*
X980184D01*
X982723Y591300D01*
Y583682D01*
X797809Y553212D02*
X782574D01*
Y560830D01*
X785113Y563369D01*
X795270D01*
X797809Y560830D01*
Y553212D01*
X782574Y578604D02*
Y568447D01*
X792731Y578604D01*
X795270D01*
X797809Y576065D01*
Y570986D01*
X795270Y568447D01*
X797809Y593839D02*
Y583682D01*
X790191D01*
X792731Y588760D01*
Y591300D01*
X790191Y593839D01*
X785113D01*
X782574Y591300D01*
Y586221D01*
X785113Y583682D01*
X536951Y553212D02*
X521716D01*
Y560830D01*
X524255Y563369D01*
X534412D01*
X536951Y560830D01*
Y553212D01*
X521716Y578604D02*
Y568447D01*
X531873Y578604D01*
X534412D01*
X536951Y576065D01*
Y570986D01*
X534412Y568447D01*
X521716Y591300D02*
X536951D01*
X529333Y583682D01*
Y593839D01*
X2490211Y743712D02*
X2474976D01*
Y751329D01*
X2477515Y753869D01*
X2487672D01*
X2490211Y751329D01*
Y743712D01*
X2474976Y769104D02*
Y758947D01*
X2485133Y769104D01*
X2487672D01*
X2490211Y766565D01*
Y761486D01*
X2487672Y758947D01*
Y774182D02*
X2490211Y776721D01*
Y781800D01*
X2487672Y784339D01*
X2485133D01*
X2482594Y781800D01*
Y779260D01*
Y781800D01*
X2480054Y784339D01*
X2477515D01*
X2474976Y781800D01*
Y776721D01*
X2477515Y774182D01*
X2227321Y743712D02*
X2212086D01*
Y751329D01*
X2214625Y753869D01*
X2224782D01*
X2227321Y751329D01*
Y743712D01*
X2212086Y769104D02*
Y758947D01*
X2222243Y769104D01*
X2224782D01*
X2227321Y766565D01*
Y761486D01*
X2224782Y758947D01*
X2212086Y784339D02*
Y774182D01*
X2222243Y784339D01*
X2224782D01*
X2227321Y781800D01*
Y776721D01*
X2224782Y774182D01*
X2038091Y748792D02*
X2022856D01*
Y756410D01*
X2025395Y758949D01*
X2035552D01*
X2038091Y756410D01*
Y748792D01*
X2022856Y774184D02*
Y764027D01*
X2033013Y774184D01*
X2035552D01*
X2038091Y771645D01*
Y766566D01*
X2035552Y764027D01*
X2022856Y779262D02*
Y784341D01*
Y781801D01*
X2038091D01*
X2035552Y779262D01*
X1847591Y743712D02*
X1832356D01*
Y751329D01*
X1834895Y753869D01*
X1845052D01*
X1847591Y751329D01*
Y743712D01*
X1832356Y769104D02*
Y758947D01*
X1842513Y769104D01*
X1845052D01*
X1847591Y766565D01*
Y761486D01*
X1845052Y758947D01*
Y774182D02*
X1847591Y776721D01*
Y781800D01*
X1845052Y784339D01*
X1834895D01*
X1832356Y781800D01*
Y776721D01*
X1834895Y774182D01*
X1845052D01*
X1654551Y747522D02*
X1639316D01*
Y755139D01*
X1641855Y757679D01*
X1652012D01*
X1654551Y755139D01*
Y747522D01*
X1639316Y762757D02*
Y767835D01*
Y765296D01*
X1654551D01*
X1652012Y762757D01*
X1641855Y775453D02*
X1639316Y777992D01*
Y783071D01*
X1641855Y785610D01*
X1652012D01*
X1654551Y783071D01*
Y777992D01*
X1652012Y775453D01*
X1649473D01*
X1646933Y777992D01*
Y785610D01*
X1464051Y747522D02*
X1448816D01*
Y755139D01*
X1451355Y757679D01*
X1461512D01*
X1464051Y755139D01*
Y747522D01*
X1448816Y762757D02*
Y767835D01*
Y765296D01*
X1464051D01*
X1461512Y762757D01*
Y775453D02*
X1464051Y777992D01*
Y783071D01*
X1461512Y785610D01*
X1458973D01*
X1456434Y783071D01*
X1453894Y785610D01*
X1451355D01*
X1448816Y783071D01*
Y777992D01*
X1451355Y775453D01*
X1453894D01*
X1456434Y777992D01*
X1458973Y775453D01*
X1461512D01*
X1456434Y777992D02*
Y783071D01*
X1276091Y746252D02*
X1260856D01*
Y753869D01*
X1263395Y756409D01*
X1273552D01*
X1276091Y753869D01*
Y746252D01*
X1260856Y761487D02*
Y766565D01*
Y764026D01*
X1276091D01*
X1273552Y761487D01*
X1276091Y774183D02*
Y784340D01*
X1273552D01*
X1263395Y774183D01*
X1260856D01*
X1081781Y746252D02*
X1066546D01*
Y753869D01*
X1069085Y756409D01*
X1079242D01*
X1081781Y753869D01*
Y746252D01*
X1066546Y761487D02*
Y766565D01*
Y764026D01*
X1081781D01*
X1079242Y761487D01*
X1081781Y784340D02*
X1079242Y779261D01*
X1074164Y774183D01*
X1069085D01*
X1066546Y776722D01*
Y781801D01*
X1069085Y784340D01*
X1071624D01*
X1074164Y781801D01*
Y774183D01*
X892551Y746252D02*
X877316D01*
Y753869D01*
X879855Y756409D01*
X890012D01*
X892551Y753869D01*
Y746252D01*
X877316Y761487D02*
Y766565D01*
Y764026D01*
X892551D01*
X890012Y761487D01*
X892551Y784340D02*
Y774183D01*
X884933D01*
X887473Y779261D01*
Y781801D01*
X884933Y784340D01*
X879855D01*
X877316Y781801D01*
Y776722D01*
X879855Y774183D01*
X702051Y747522D02*
X686816D01*
Y755139D01*
X689355Y757679D01*
X699512D01*
X702051Y755139D01*
Y747522D01*
X686816Y762757D02*
Y767835D01*
Y765296D01*
X702051D01*
X699512Y762757D01*
X686816Y783071D02*
X702051D01*
X694434Y775453D01*
Y785610D01*
X482598Y750576D02*
X467363D01*
Y758194D01*
X469902Y760733D01*
X480058D01*
X482598Y758194D01*
Y750576D01*
X467363Y765811D02*
Y770890D01*
Y768350D01*
X482598D01*
X480058Y765811D01*
Y778507D02*
X482598Y781046D01*
Y786125D01*
X480058Y788664D01*
X477519D01*
X474980Y786125D01*
Y783586D01*
Y786125D01*
X472441Y788664D01*
X469902D01*
X467363Y786125D01*
Y781046D01*
X469902Y778507D01*
X2560061Y936752D02*
X2544826D01*
Y944370D01*
X2547365Y946909D01*
X2557522D01*
X2560061Y944370D01*
Y936752D01*
X2544826Y951987D02*
Y957065D01*
Y954526D01*
X2560061D01*
X2557522Y951987D01*
X2544826Y974840D02*
Y964683D01*
X2554983Y974840D01*
X2557522D01*
X2560061Y972300D01*
Y967222D01*
X2557522Y964683D01*
X2367021Y941832D02*
X2351786D01*
Y949449D01*
X2354325Y951989D01*
X2364482D01*
X2367021Y949449D01*
Y941832D01*
X2351786Y957067D02*
Y962145D01*
Y959606D01*
X2367021D01*
X2364482Y957067D01*
X2351786Y969763D02*
Y974841D01*
Y972302D01*
X2367021D01*
X2364482Y969763D01*
X2175508Y941076D02*
X2160273D01*
Y948694D01*
X2162812Y951233D01*
X2172968D01*
X2175508Y948694D01*
Y941076D01*
X2160273Y956311D02*
Y961390D01*
Y958850D01*
X2175508D01*
X2172968Y956311D01*
Y969007D02*
X2175508Y971546D01*
Y976625D01*
X2172968Y979164D01*
X2162812D01*
X2160273Y976625D01*
Y971546D01*
X2162812Y969007D01*
X2172968D01*
X1982467Y957584D02*
X1967233D01*
Y965202D01*
X1969772Y967741D01*
X1979928D01*
X1982467Y965202D01*
Y957584D01*
X1969772Y972819D02*
X1967233Y975358D01*
Y980437D01*
X1969772Y982976D01*
X1979928D01*
X1982467Y980437D01*
Y975358D01*
X1979928Y972819D01*
X1977389D01*
X1974850Y975358D01*
Y982976D01*
X1791967Y957584D02*
X1776732D01*
Y965202D01*
X1779272Y967741D01*
X1789428D01*
X1791967Y965202D01*
Y957584D01*
X1789428Y972819D02*
X1791967Y975358D01*
Y980437D01*
X1789428Y982976D01*
X1786889D01*
X1784350Y980437D01*
X1781811Y982976D01*
X1779272D01*
X1776732Y980437D01*
Y975358D01*
X1779272Y972819D01*
X1781811D01*
X1784350Y975358D01*
X1786889Y972819D01*
X1789428D01*
X1784350Y975358D02*
Y980437D01*
X1601467Y957584D02*
X1586232D01*
Y965202D01*
X1588772Y967741D01*
X1598928D01*
X1601467Y965202D01*
Y957584D01*
Y972819D02*
Y982976D01*
X1598928D01*
X1588772Y972819D01*
X1586232D01*
X1411729Y956314D02*
X1396494D01*
Y963932D01*
X1399034Y966471D01*
X1409190D01*
X1411729Y963932D01*
Y956314D01*
Y981706D02*
X1409190Y976628D01*
X1404112Y971549D01*
X1399034D01*
X1396494Y974088D01*
Y979167D01*
X1399034Y981706D01*
X1401573D01*
X1404112Y979167D01*
Y971549D01*
X1219197Y957584D02*
X1203962D01*
Y965202D01*
X1206502Y967741D01*
X1216658D01*
X1219197Y965202D01*
Y957584D01*
Y982976D02*
Y972819D01*
X1211580D01*
X1214119Y977897D01*
Y980437D01*
X1211580Y982976D01*
X1206502D01*
X1203962Y980437D01*
Y975358D01*
X1206502Y972819D01*
X1029967Y957584D02*
X1014733D01*
Y965202D01*
X1017272Y967741D01*
X1027428D01*
X1029967Y965202D01*
Y957584D01*
X1014733Y980437D02*
X1029967D01*
X1022350Y972819D01*
Y982976D01*
X839467Y958854D02*
X824232D01*
Y966472D01*
X826772Y969011D01*
X836928D01*
X839467Y966472D01*
Y958854D01*
X836928Y974089D02*
X839467Y976628D01*
Y981707D01*
X836928Y984246D01*
X834389D01*
X831850Y981707D01*
Y979167D01*
Y981707D01*
X829311Y984246D01*
X826772D01*
X824232Y981707D01*
Y976628D01*
X826772Y974089D01*
X648968Y957584D02*
X633732D01*
Y965202D01*
X636272Y967741D01*
X646428D01*
X648968Y965202D01*
Y957584D01*
X633732Y982976D02*
Y972819D01*
X643889Y982976D01*
X646428D01*
X648968Y980437D01*
Y975358D01*
X646428Y972819D01*
X458467Y958853D02*
X443232D01*
Y966471D01*
X445772Y969010D01*
X455928D01*
X458467Y966471D01*
Y958853D01*
X443232Y974088D02*
Y979167D01*
Y976628D01*
X458467D01*
X455928Y974088D01*
X1287626Y387349D02*
X1290165Y389888D01*
X1295244D01*
X1297783Y387349D01*
Y377192D01*
X1295244Y374653D01*
X1290165D01*
X1287626Y377192D01*
X1282548Y374653D02*
X1277469D01*
X1280009D01*
Y389888D01*
X1282548Y387349D01*
X1269852D02*
X1267313Y389888D01*
X1262234D01*
X1259695Y387349D01*
Y384810D01*
X1262234Y382271D01*
X1264774D01*
X1262234D01*
X1259695Y379732D01*
Y377192D01*
X1262234Y374653D01*
X1267313D01*
X1269852Y377192D01*
X650237Y723898D02*
X652776Y726438D01*
X657855D01*
X660394Y723898D01*
Y713742D01*
X657855Y711202D01*
X652776D01*
X650237Y713742D01*
X645159Y711202D02*
X640080D01*
X642620D01*
Y726438D01*
X645159Y723898D01*
X622306Y711202D02*
X632463D01*
X622306Y721359D01*
Y723898D01*
X624845Y726438D01*
X629924D01*
X632463Y723898D01*
X650238Y699768D02*
X652777Y702308D01*
X657856D01*
X660395Y699768D01*
Y689612D01*
X657856Y687073D01*
X652777D01*
X650238Y689612D01*
X645160Y687073D02*
X640081D01*
X642620D01*
Y702308D01*
X645160Y699768D01*
X632464Y687073D02*
X627385D01*
X629925D01*
Y702308D01*
X632464Y699768D01*
X651507Y580388D02*
X654046Y582928D01*
X659125D01*
X661664Y580388D01*
Y570232D01*
X659125Y567692D01*
X654046D01*
X651507Y570232D01*
X646429Y567692D02*
X641350D01*
X643890D01*
Y582928D01*
X646429Y580388D01*
X633733D02*
X631194Y582928D01*
X626115D01*
X623576Y580388D01*
Y570232D01*
X626115Y567692D01*
X631194D01*
X633733Y570232D01*
Y580388D01*
X638809Y605788D02*
X641348Y608327D01*
X646427D01*
X648966Y605788D01*
Y595632D01*
X646427Y593092D01*
X641348D01*
X638809Y595632D01*
X633731D02*
X631192Y593092D01*
X626113D01*
X623574Y595632D01*
Y605788D01*
X626113Y608327D01*
X631192D01*
X633731Y605788D01*
Y603249D01*
X631192Y600710D01*
X623574D01*
X1287930Y414017D02*
X1290469Y416557D01*
X1295548D01*
X1298087Y414017D01*
Y403861D01*
X1295548Y401322D01*
X1290469D01*
X1287930Y403861D01*
X1282852Y414017D02*
X1280312Y416557D01*
X1275234D01*
X1272695Y414017D01*
Y411478D01*
X1275234Y408939D01*
X1272695Y406400D01*
Y403861D01*
X1275234Y401322D01*
X1280312D01*
X1282852Y403861D01*
Y406400D01*
X1280312Y408939D01*
X1282852Y411478D01*
Y414017D01*
X1280312Y408939D02*
X1275234D01*
X1568451Y365762D02*
X1565912Y363222D01*
X1560833D01*
X1558294Y365762D01*
Y375918D01*
X1560833Y378457D01*
X1565912D01*
X1568451Y375918D01*
X1583686Y378457D02*
X1573529D01*
X1583686Y368301D01*
Y365762D01*
X1581147Y363222D01*
X1576068D01*
X1573529Y365762D01*
X1494790Y542288D02*
X1497329Y544827D01*
X1502408D01*
X1504947Y542288D01*
Y532132D01*
X1502408Y529593D01*
X1497329D01*
X1494790Y532132D01*
X1489712Y529593D02*
X1484633D01*
X1487172D01*
Y544827D01*
X1489712Y542288D01*
X1388103Y520703D02*
Y535938D01*
X1383025Y530859D01*
X1377947Y535938D01*
Y520703D01*
X1362712Y533398D02*
X1365251Y535938D01*
X1370329D01*
X1372868Y533398D01*
Y523242D01*
X1370329Y520703D01*
X1365251D01*
X1362712Y523242D01*
X1357633Y535938D02*
Y523242D01*
X1355094Y520703D01*
X1350016D01*
X1347477Y523242D01*
Y535938D01*
X433062Y1113788D02*
Y1101092D01*
X430523Y1098552D01*
X425444D01*
X422905Y1101092D01*
Y1113788D01*
X407670Y1111248D02*
X410209Y1113788D01*
X415288D01*
X417827Y1111248D01*
Y1108709D01*
X415288Y1106170D01*
X410209D01*
X407670Y1103631D01*
Y1101092D01*
X410209Y1098552D01*
X415288D01*
X417827Y1101092D01*
X402592Y1113788D02*
Y1098552D01*
X394974D01*
X392435Y1101092D01*
Y1103631D01*
X394974Y1106170D01*
X402592D01*
X394974D01*
X392435Y1108709D01*
Y1111248D01*
X394974Y1113788D01*
X402592D01*
X387357Y1098552D02*
X382278D01*
X384817D01*
Y1113788D01*
X387357Y1111248D01*
D64*
X1073489Y456700D02*
G03*
X1052617Y457080I-10499J-3281D01*
G01*
X1052491Y442580D02*
G03*
X1073363Y442200I10499J3281D01*
G01*
X1046990Y428580D02*
Y470580D01*
X1078990Y428580D02*
Y470580D01*
X1056490Y428580D02*
X1069490D01*
X1056490Y470580D02*
X1069490D01*
X1073489Y442326D02*
Y456700D01*
X1052491Y442580D02*
Y456954D01*
D65*
X1456921Y404017D02*
G03*
X1456921Y404017I-1501J0D01*
G01*
D66*
X1456421Y374780D02*
G03*
X1456421Y374780I-1001J0D01*
G01*
D67*
X338939Y682959D02*
X351939D01*
Y708959D01*
X338939D02*
X351939D01*
X338939Y682959D02*
Y708959D01*
X333709Y624585D02*
Y637584D01*
Y624585D02*
X359709D01*
Y637584D01*
X333709D02*
X359709D01*
X617051Y566166D02*
Y584454D01*
X583051Y566166D02*
Y584454D01*
Y566166D02*
X596241D01*
X603861D02*
X617051D01*
X603861Y584453D02*
X617051D01*
X583051D02*
X596241D01*
X617710Y590297D02*
Y608585D01*
X583710Y590297D02*
Y608585D01*
Y590297D02*
X596900D01*
X604520D02*
X617710D01*
X604520Y608583D02*
X617710D01*
X583710D02*
X596900D01*
X583049Y708406D02*
Y726694D01*
X617049Y708406D02*
Y726694D01*
X603859D02*
X617049D01*
X583049D02*
X596239D01*
X583049Y708408D02*
X596239D01*
X603859D02*
X617049D01*
X582440Y684275D02*
Y702563D01*
X616440Y684275D02*
Y702563D01*
X603250D02*
X616440D01*
X582440D02*
X595630D01*
X582440Y684277D02*
X595630D01*
X603250D02*
X616440D01*
X1083438Y462730D02*
X1096438D01*
X1083438Y436730D02*
Y462730D01*
Y436730D02*
X1096438D01*
Y462730D01*
X1535580Y530710D02*
Y543710D01*
X1509580Y530710D02*
Y543710D01*
Y530710D02*
X1518771D01*
X1509580Y543710D02*
X1518771D01*
X1526391Y530710D02*
X1535580D01*
X1526391Y543710D02*
X1535580D01*
X1524971Y363069D02*
Y376069D01*
X1550971Y363069D02*
Y376069D01*
X1541780D02*
X1550971D01*
X1541780Y363069D02*
X1550971D01*
X1524971Y376069D02*
X1534160D01*
X1524971Y363069D02*
X1534160D01*
X1327449Y455164D02*
Y468164D01*
X1301449Y455164D02*
Y468164D01*
Y455164D02*
X1310640D01*
X1301449Y468164D02*
X1310640Y468164D01*
X1318260Y455164D02*
X1327449D01*
X1318260Y468164D02*
X1327449Y468164D01*
Y437589D02*
Y450589D01*
X1301449Y437589D02*
Y450589D01*
Y437589D02*
X1310640D01*
X1301449Y450589D02*
X1310640D01*
X1318260Y437589D02*
X1327449D01*
X1318260Y450589D02*
X1327449D01*
X1327600Y420014D02*
Y433015D01*
X1301600Y420014D02*
Y433015D01*
Y420014D02*
X1310791D01*
X1301600Y433015D02*
X1310791D01*
X1318411Y420014D02*
X1327600D01*
X1318411Y433015D02*
X1327600D01*
X1327449Y375771D02*
Y388771D01*
X1301449Y375771D02*
Y388771D01*
Y375771D02*
X1310640D01*
X1301449Y388771D02*
X1310640D01*
X1318260Y375771D02*
X1327449D01*
X1318260Y388771D02*
X1327449D01*
X1327600Y402440D02*
Y415440D01*
X1301600Y402440D02*
Y415440D01*
Y402440D02*
X1310791D01*
X1301600Y415440D02*
X1310791D01*
X1318411Y402440D02*
X1327600D01*
X1318411Y415440D02*
X1327600D01*
X1327449Y490313D02*
Y503313D01*
X1301449Y490313D02*
Y503313D01*
Y490313D02*
X1310640D01*
X1301449Y503313D02*
X1310640D01*
X1318260Y490313D02*
X1327449D01*
X1318260Y503313D02*
X1327449D01*
Y472739D02*
Y485738D01*
X1301449Y472739D02*
Y485738D01*
Y472739D02*
X1310640D01*
X1301449Y485738D02*
X1310640D01*
X1318260Y472739D02*
X1327449D01*
X1318260Y485738D02*
X1327449D01*
D68*
X587536Y613430D02*
Y679954D01*
Y613430D02*
X616964D01*
Y679954D01*
X587536D02*
X616964D01*
X598781Y571499D02*
Y579119D01*
X601321Y571499D02*
Y579119D01*
Y575309D02*
X602591D01*
X597511D02*
X598781D01*
X599440Y595630D02*
Y603250D01*
X601980Y595630D02*
Y603250D01*
Y599440D02*
X603250D01*
X598170D02*
X599440D01*
X601319Y713741D02*
Y721361D01*
X598779Y713741D02*
Y721361D01*
X597509Y717551D02*
X598779D01*
X601319D02*
X602589D01*
X600710Y689610D02*
Y697230D01*
X598170Y689610D02*
Y697230D01*
X596900Y693420D02*
X598170D01*
X600710D02*
X601980D01*
X1522581Y534923D02*
Y539495D01*
X1521819Y537209D02*
X1522581D01*
X1523343D01*
X1537970Y367284D02*
Y371856D01*
Y369570D02*
X1538732D01*
X1537208D02*
X1537970D01*
X1314450Y459377D02*
Y463949D01*
X1313688Y461663D02*
X1314450D01*
X1315212D01*
X1314450Y441802D02*
Y446375D01*
X1313688Y444089D02*
X1314450D01*
X1315212D01*
X1314601Y424228D02*
Y428800D01*
X1313839Y426514D02*
X1314601D01*
X1315363D01*
X1314450Y379984D02*
Y384556D01*
X1313688Y382270D02*
X1314450D01*
X1315212D01*
X1314601Y406653D02*
Y411225D01*
X1313839Y408939D02*
X1314601D01*
X1315363D01*
X1506220Y396016D02*
X1523726Y396165D01*
X1506220Y396016D02*
Y510316D01*
X1523726Y510165D01*
X1536974D02*
X1554480Y510316D01*
Y396016D02*
Y510316D01*
X1536974Y396165D02*
X1554480Y396016D01*
X1506220D02*
X1523726Y396165D01*
X1506220Y396016D02*
Y510316D01*
X1523726Y510165D01*
X1536974D02*
X1554480Y510316D01*
Y396016D02*
Y510316D01*
X1536974Y396165D02*
X1554480Y396016D01*
X478806Y1017270D02*
Y1023620D01*
X468646Y1017270D02*
X478806D01*
X468646D02*
Y1023620D01*
Y1036320D02*
Y1042670D01*
X478806D01*
Y1036320D02*
Y1042670D01*
X1314450Y494526D02*
Y499098D01*
X1313688Y496812D02*
X1314450D01*
X1315212D01*
X497824Y1036320D02*
Y1042670D01*
X507984D01*
Y1036320D02*
Y1042670D01*
Y1017270D02*
Y1023620D01*
X497824Y1017270D02*
X507984D01*
X497824D02*
Y1023620D01*
X1314450Y476951D02*
Y481524D01*
X1313688Y479238D02*
X1314450D01*
X1315212D01*
X1369298Y399018D02*
X1462802D01*
X1369298D02*
Y492522D01*
X1462802D01*
Y399018D02*
Y492522D01*
X1365250Y394970D02*
X1372570D01*
X1365250D02*
Y402290D01*
X1459530Y394970D02*
X1466850D01*
Y402290D01*
X1365250Y496570D02*
X1372570D01*
X1365250Y489250D02*
Y496570D01*
X1459530D02*
X1466850D01*
Y489250D02*
Y496570D01*
D69*
X473726Y1029970D02*
D03*
X502904D02*
D03*
M02*
