G04*
G04 #@! TF.GenerationSoftware,Altium Limited,Altium Designer,23.0.1 (38)*
G04*
G04 Layer_Color=65535*
%FSLAX44Y44*%
%MOMM*%
G71*
G04*
G04 #@! TF.SameCoordinates,415B9E50-699A-4425-B3A7-CA41C988AD1A*
G04*
G04*
G04 #@! TF.FilePolarity,Positive*
G04*
G01*
G75*
%ADD10C,0.1500*%
%ADD11C,0.2540*%
D10*
X965160Y424815D02*
G03*
X965160Y424815I-2500J0D01*
G01*
X730248Y431165D02*
G03*
X730248Y431165I-2500J0D01*
G01*
X515619Y433705D02*
G03*
X515619Y433705I-2500J0D01*
G01*
X2349498Y422275D02*
G03*
X2349498Y422275I-2500J0D01*
G01*
X2136138Y426085D02*
G03*
X2136138Y426085I-2500J0D01*
G01*
X1845270Y424815D02*
G03*
X1845270Y424815I-2500J0D01*
G01*
X2489795Y483870D02*
G03*
X2489795Y483870I-2500J0D01*
G01*
X2275165D02*
G03*
X2275165Y483870I-2500J0D01*
G01*
X2061805Y482600D02*
G03*
X2061805Y482600I-2500J0D01*
G01*
X1679535Y483870D02*
G03*
X1679535Y483870I-2500J0D01*
G01*
X1204555Y482600D02*
G03*
X1204555Y482600I-2500J0D01*
G01*
X870545D02*
G03*
X870545Y482600I-2500J0D01*
G01*
X2489795Y673100D02*
G03*
X2489795Y673100I-2500J0D01*
G01*
X2275165Y674370D02*
G03*
X2275165Y674370I-2500J0D01*
G01*
X655915Y483870D02*
G03*
X655915Y483870I-2500J0D01*
G01*
X441285D02*
G03*
X441285Y483870I-2500J0D01*
G01*
X490255Y674250D02*
G03*
X490255Y674250I-2500J0D01*
G01*
X2441535Y864870D02*
G03*
X2441535Y864870I-2500J0D01*
G01*
X2179915D02*
G03*
X2179915Y864870I-2500J0D01*
G01*
X1989415D02*
G03*
X1989415Y864870I-2500J0D01*
G01*
X1798915Y863600D02*
G03*
X1798915Y863600I-2500J0D01*
G01*
X1608415Y864870D02*
G03*
X1608415Y864870I-2500J0D01*
G01*
X1417915D02*
G03*
X1417915Y864870I-2500J0D01*
G01*
X1227415D02*
G03*
X1227415Y864870I-2500J0D01*
G01*
X1036915D02*
G03*
X1036915Y864870I-2500J0D01*
G01*
X846415D02*
G03*
X846415Y864870I-2500J0D01*
G01*
X655915D02*
G03*
X655915Y864870I-2500J0D01*
G01*
X441285D02*
G03*
X441285Y864870I-2500J0D01*
G01*
X798155Y1055370D02*
G03*
X798155Y1055370I-2500J0D01*
G01*
X2513925Y1054100D02*
G03*
X2513925Y1054100I-2500J0D01*
G01*
X2322155D02*
G03*
X2322155Y1054100I-2500J0D01*
G01*
X2132925D02*
G03*
X2132925Y1054100I-2500J0D01*
G01*
X1941155D02*
G03*
X1941155Y1054100I-2500J0D01*
G01*
X1750655Y1055370D02*
G03*
X1750655Y1055370I-2500J0D01*
G01*
X1560155D02*
G03*
X1560155Y1055370I-2500J0D01*
G01*
X1369655Y1054100D02*
G03*
X1369655Y1054100I-2500J0D01*
G01*
X1179155Y1055370D02*
G03*
X1179155Y1055370I-2500J0D01*
G01*
X988655D02*
G03*
X988655Y1055370I-2500J0D01*
G01*
X2084665Y673100D02*
G03*
X2084665Y673100I-2500J0D01*
G01*
X1894165Y674370D02*
G03*
X1894165Y674370I-2500J0D01*
G01*
X1703665D02*
G03*
X1703665Y674370I-2500J0D01*
G01*
X1513165D02*
G03*
X1513165Y674370I-2500J0D01*
G01*
X1322665D02*
G03*
X1322665Y674370I-2500J0D01*
G01*
X1132165D02*
G03*
X1132165Y674370I-2500J0D01*
G01*
X941665D02*
G03*
X941665Y674370I-2500J0D01*
G01*
X751165D02*
G03*
X751165Y674370I-2500J0D01*
G01*
X607655Y1055370D02*
G03*
X607655Y1055370I-2500J0D01*
G01*
X417155D02*
G03*
X417155Y1055370I-2500J0D01*
G01*
D11*
X2535070Y382120D02*
Y522120D01*
X2395070Y382120D02*
X2535070D01*
X2395070D02*
Y522120D01*
X2535070D01*
X2320440Y382120D02*
Y522120D01*
X2180440Y382120D02*
X2320440D01*
X2180440D02*
Y522120D01*
X2320440D01*
X2107080Y380850D02*
Y520850D01*
X1967080Y380850D02*
X2107080D01*
X1967080D02*
Y520850D01*
X2107080D01*
X1724810Y382120D02*
Y522120D01*
X1584810Y382120D02*
X1724810D01*
X1584810D02*
Y522120D01*
X1724810D01*
X1249830Y380850D02*
Y520850D01*
X1109830Y380850D02*
X1249830D01*
X1109830D02*
Y520850D01*
X1249830D01*
X915820Y380850D02*
Y520850D01*
X775820Y380850D02*
X915820D01*
X775820D02*
Y520850D01*
X915820D01*
X2535070Y571350D02*
Y711350D01*
X2395070Y571350D02*
X2535070D01*
X2395070D02*
Y711350D01*
X2535070D01*
X2320440Y572620D02*
Y712620D01*
X2180440Y572620D02*
X2320440D01*
X2180440D02*
Y712620D01*
X2320440D01*
X701190Y382120D02*
Y522120D01*
X561190Y382120D02*
X701190D01*
X561190D02*
Y522120D01*
X701190D01*
X486560Y382120D02*
Y522120D01*
X346560Y382120D02*
X486560D01*
X346560D02*
Y522120D01*
X486560D01*
X535530Y572500D02*
Y712500D01*
X395530Y572500D02*
X535530D01*
X395530D02*
Y712500D01*
X535530D01*
X2486810Y763120D02*
Y903120D01*
X2346810Y763120D02*
X2486810D01*
X2346810D02*
Y903120D01*
X2486810D01*
X2225190Y763120D02*
Y903120D01*
X2085190Y763120D02*
X2225190D01*
X2085190D02*
Y903120D01*
X2225190D01*
X2034690Y763120D02*
Y903120D01*
X1894690Y763120D02*
X2034690D01*
X1894690D02*
Y903120D01*
X2034690D01*
X1844190Y761850D02*
Y901850D01*
X1704190Y761850D02*
X1844190D01*
X1704190D02*
Y901850D01*
X1844190D01*
X1653690Y763120D02*
Y903120D01*
X1513690Y763120D02*
X1653690D01*
X1513690D02*
Y903120D01*
X1653690D01*
X1463190Y763120D02*
Y903120D01*
X1323190Y763120D02*
X1463190D01*
X1323190D02*
Y903120D01*
X1463190D01*
X1272690Y763120D02*
Y903120D01*
X1132690Y763120D02*
X1272690D01*
X1132690D02*
Y903120D01*
X1272690D01*
X1082190Y763120D02*
Y903120D01*
X942190Y763120D02*
X1082190D01*
X942190D02*
Y903120D01*
X1082190D01*
X891690Y763120D02*
Y903120D01*
X751690Y763120D02*
X891690D01*
X751690D02*
Y903120D01*
X891690D01*
X701190Y763120D02*
Y903120D01*
X561190Y763120D02*
X701190D01*
X561190D02*
Y903120D01*
X701190D01*
X486560Y763120D02*
Y903120D01*
X346560Y763120D02*
X486560D01*
X346560D02*
Y903120D01*
X486560D01*
X843430Y953620D02*
Y1093620D01*
X703430Y953620D02*
X843430D01*
X703430D02*
Y1093620D01*
X843430D01*
X2559200Y952350D02*
Y1092350D01*
X2419200Y952350D02*
X2559200D01*
X2419200D02*
Y1092350D01*
X2559200D01*
X2367430Y952350D02*
Y1092350D01*
X2227430Y952350D02*
X2367430D01*
X2227430D02*
Y1092350D01*
X2367430D01*
X2178200Y952350D02*
Y1092350D01*
X2038200Y952350D02*
X2178200D01*
X2038200D02*
Y1092350D01*
X2178200D01*
X1986430Y952350D02*
Y1092350D01*
X1846430Y952350D02*
X1986430D01*
X1846430D02*
Y1092350D01*
X1986430D01*
X1795930Y953620D02*
Y1093620D01*
X1655930Y953620D02*
X1795930D01*
X1655930D02*
Y1093620D01*
X1795930D01*
X1605430Y953620D02*
Y1093620D01*
X1465430Y953620D02*
X1605430D01*
X1465430D02*
Y1093620D01*
X1605430D01*
X1414930Y952350D02*
Y1092350D01*
X1274930Y952350D02*
X1414930D01*
X1274930D02*
Y1092350D01*
X1414930D01*
X1224430Y953620D02*
Y1093620D01*
X1084430Y953620D02*
X1224430D01*
X1084430D02*
Y1093620D01*
X1224430D01*
X1033930Y953620D02*
Y1093620D01*
X893930Y953620D02*
X1033930D01*
X893930D02*
Y1093620D01*
X1033930D01*
X2129940Y571350D02*
Y711350D01*
X1989940Y571350D02*
X2129940D01*
X1989940D02*
Y711350D01*
X2129940D01*
X1939440Y572620D02*
Y712620D01*
X1799440Y572620D02*
X1939440D01*
X1799440D02*
Y712620D01*
X1939440D01*
X1748940Y572620D02*
Y712620D01*
X1608940Y572620D02*
X1748940D01*
X1608940D02*
Y712620D01*
X1748940D01*
X1558440Y572620D02*
Y712620D01*
X1418440Y572620D02*
X1558440D01*
X1418440D02*
Y712620D01*
X1558440D01*
X1367940Y572620D02*
Y712620D01*
X1227940Y572620D02*
X1367940D01*
X1227940D02*
Y712620D01*
X1367940D01*
X1177440Y572620D02*
Y712620D01*
X1037440Y572620D02*
X1177440D01*
X1037440D02*
Y712620D01*
X1177440D01*
X986940Y572620D02*
Y712620D01*
X846940Y572620D02*
X986940D01*
X846940D02*
Y712620D01*
X986940D01*
X796440Y572620D02*
Y712620D01*
X656440Y572620D02*
X796440D01*
X656440D02*
Y712620D01*
X796440D01*
X652930Y953620D02*
Y1093620D01*
X512930Y953620D02*
X652930D01*
X512930D02*
Y1093620D01*
X652930D01*
X462430Y953620D02*
Y1093620D01*
X322430Y953620D02*
X462430D01*
X322430D02*
Y1093620D01*
X462430D01*
X514109Y953668D02*
Y963658D01*
Y953668D02*
X652600D01*
Y963658D01*
X660608D01*
X704610Y953668D02*
Y963658D01*
Y953668D02*
X843100D01*
Y963658D01*
X851108D01*
X696602D02*
X704610D01*
X485914Y891667D02*
Y901658D01*
X462102Y953668D02*
Y963658D01*
X347421Y891667D02*
Y901658D01*
X485914Y891667D02*
X493920D01*
X347421Y901658D02*
X485914D01*
X462102Y963658D02*
X470108D01*
X890725Y891667D02*
Y901658D01*
X752221D02*
X890725D01*
X553727Y891667D02*
X561720D01*
X700225D02*
X708219D01*
X700225D02*
Y901658D01*
X561720Y891667D02*
Y901658D01*
X700225D01*
X752221Y891667D02*
Y901658D01*
X744227Y891667D02*
X752221D01*
X470108Y963658D02*
Y993161D01*
X660608Y963658D02*
Y993161D01*
X652600D02*
X660608D01*
X462102D02*
X470108D01*
X506102Y963658D02*
Y993161D01*
X514109D01*
X506102Y963658D02*
X514109D01*
X696602D02*
Y993161D01*
X704610D01*
X887102Y963658D02*
Y993161D01*
X851108Y963658D02*
Y993161D01*
X843100D02*
X851108D01*
X1268102D02*
X1276110D01*
X1232094Y963658D02*
Y993161D01*
X1268102Y963658D02*
Y993161D01*
X1224100D02*
X1232094D01*
X1268102Y963658D02*
X1276110D01*
X1125227Y802661D02*
X1133221D01*
X1089219Y862164D02*
Y891667D01*
X1133221Y802661D02*
Y862164D01*
X1125227D02*
X1133221D01*
X1125227D02*
Y891667D01*
X1271725D02*
Y901658D01*
X1224100Y953668D02*
Y963658D01*
X1133221Y891667D02*
Y901658D01*
X1271725D01*
X1224100Y963658D02*
X1232094D01*
X1125227Y891667D02*
X1133221D01*
X1276110Y953668D02*
Y963658D01*
X1271725Y802661D02*
X1279719D01*
X1271725D02*
Y862164D01*
Y891667D02*
X1279719D01*
X1271725Y862164D02*
X1279719D01*
Y891667D01*
X1795600Y993161D02*
X1803610D01*
Y963658D02*
Y993161D01*
X1795600Y963658D02*
X1803610D01*
X1795600Y953668D02*
Y963658D01*
X1895220Y891667D02*
Y901658D01*
X1887230Y891667D02*
X1895220D01*
X1887230Y862164D02*
X1895220D01*
X1887230D02*
Y891667D01*
X1895220Y901658D02*
X2033730D01*
X1843230Y891667D02*
X1851220D01*
X1660720Y862164D02*
Y891667D01*
X1704720D02*
Y901658D01*
X1696730Y862164D02*
Y891667D01*
X1704720D01*
X1843230D02*
Y901658D01*
X1851220Y862164D02*
Y891667D01*
X1843230Y862164D02*
X1851220D01*
X1696730D02*
X1704720D01*
Y901658D02*
X1843230D01*
X1986100Y993161D02*
X1994110D01*
X1847610Y953668D02*
Y963658D01*
Y953668D02*
X1986100D01*
X1994110Y963658D02*
Y993161D01*
X1986100Y953668D02*
Y963658D01*
X1839600Y993161D02*
X1847610D01*
X1839600Y963658D02*
X1847610D01*
X1986100D02*
X1994110D01*
X1839600D02*
Y993161D01*
X2033730Y891667D02*
X2041720D01*
X2033730Y862164D02*
X2041720D01*
Y891667D01*
X2033730D02*
Y901658D01*
X2030100Y993161D02*
X2038110D01*
X2030100Y963658D02*
X2038110D01*
X2030100D02*
Y993161D01*
X2038110Y953668D02*
Y963658D01*
X2533790Y510668D02*
Y520659D01*
X2395280Y510668D02*
Y520659D01*
Y572666D02*
X2533790D01*
X2387290Y481165D02*
Y510668D01*
X2395280Y572666D02*
Y582657D01*
Y520659D02*
X2533790D01*
X2387290Y481165D02*
X2395280D01*
X2387290Y510668D02*
X2395280D01*
X2533790Y572666D02*
Y582657D01*
X2387290Y671665D02*
Y701168D01*
X2395280D02*
Y711158D01*
X2387290Y671665D02*
X2395280D01*
X2387290Y701168D02*
X2395280D01*
X2533790D02*
Y711158D01*
X2387290Y582657D02*
Y612161D01*
X2533790D02*
Y671665D01*
X2395280Y612161D02*
Y671665D01*
X2387290Y612161D02*
X2395280D01*
X2387290Y582657D02*
X2395280D01*
Y711158D02*
X2533790D01*
X2319480Y612161D02*
X2327470D01*
X2319480Y671665D02*
X2327470D01*
Y582657D02*
Y612161D01*
X2319480D02*
Y671665D01*
Y510668D02*
Y520659D01*
Y572666D02*
Y582657D01*
X2327470D01*
Y671665D02*
Y701168D01*
X2319480D02*
X2327470D01*
X2319480Y481165D02*
X2327470D01*
Y510668D01*
X2319480D02*
X2327470D01*
X2319480Y701168D02*
Y711158D01*
X2411100Y993161D02*
X2419110D01*
X2367100Y963658D02*
X2375110D01*
X2411100D02*
X2419110D01*
X2367100Y993161D02*
X2375110D01*
X2367100Y953668D02*
Y963658D01*
X2375110D02*
Y993161D01*
X2411100Y963658D02*
Y993161D01*
X2419110Y953668D02*
Y963658D01*
X2339660Y891667D02*
X2347670D01*
Y802661D02*
Y862164D01*
X2339660D02*
X2347670D01*
X2339660D02*
Y891667D01*
Y802661D02*
X2347670D01*
X2339660Y773158D02*
Y802661D01*
X2347670Y891667D02*
Y901658D01*
X2339660Y773158D02*
X2347670D01*
Y763168D02*
Y773158D01*
X2232220D02*
Y802661D01*
Y862164D02*
Y891667D01*
X2486160Y862164D02*
X2494170D01*
X2486160Y891667D02*
X2494170D01*
Y862164D02*
Y891667D01*
X2486160Y773158D02*
X2494170D01*
X2486160Y891667D02*
Y901658D01*
Y802661D02*
Y862164D01*
X2347670Y763168D02*
X2486160D01*
Y773158D01*
X2494170D02*
Y802661D01*
X2486160D02*
X2494170D01*
X2347670Y901658D02*
X2486160D01*
X1092666Y473668D02*
X1109423D01*
X1092666D02*
Y505969D01*
X1247913Y473668D02*
X1264670D01*
X1101415Y481165D02*
X1109423D01*
Y473668D02*
Y481165D01*
X1101415D02*
Y510668D01*
X1264670Y473668D02*
Y505969D01*
X1101415Y510668D02*
X1109423D01*
X1247913Y473668D02*
Y481165D01*
X1255921D01*
Y510668D01*
X2172980Y392157D02*
Y421661D01*
X1740920Y384468D02*
Y429157D01*
X2319480Y421661D02*
X2327470D01*
X2319480Y392157D02*
X2327470D01*
X2172980D02*
X2180970D01*
X1806910Y384468D02*
Y447169D01*
X2327470Y392157D02*
Y421661D01*
X1577660Y510668D02*
X1585670D01*
X1557480Y572666D02*
Y582657D01*
X1565470D02*
Y612161D01*
X1557480Y582657D02*
X1565470D01*
X1568920Y473668D02*
Y505969D01*
Y473668D02*
X1585670D01*
X1577660Y481165D02*
Y510668D01*
Y481165D02*
X1585670D01*
X1568920Y429157D02*
X1585670D01*
X1577660Y421661D02*
X1585670D01*
X1577660Y392157D02*
Y421661D01*
Y392157D02*
X1585670D01*
X1557480Y612161D02*
X1565470D01*
X1557480D02*
Y671665D01*
X1565470D01*
X1609470Y612161D02*
Y671665D01*
X1990470Y612161D02*
Y671665D01*
X1747980D02*
X1755970D01*
X2128980D02*
X2136970D01*
X1747980Y612161D02*
Y671665D01*
X1982480D02*
X1990470D01*
X2128980Y612161D02*
Y671665D01*
X1938480D02*
X1946470D01*
X1601480D02*
X1609470D01*
X1791980D02*
X1799970D01*
Y612161D02*
Y671665D01*
X1938480Y612161D02*
Y671665D01*
X1247913Y429157D02*
X1264670D01*
X1092666Y384468D02*
Y429157D01*
X1247913Y392157D02*
X1255921D01*
X1247913Y421661D02*
Y429157D01*
X1092666D02*
X1109423D01*
Y421661D02*
Y429157D01*
X1101415Y421661D02*
X1109423D01*
X1101415Y392157D02*
X1109423D01*
X1247913Y421661D02*
X1255921D01*
X1101415Y392157D02*
Y421661D01*
X1255921Y392157D02*
Y421661D01*
X1264670Y384468D02*
Y429157D01*
X1330660Y384468D02*
Y447169D01*
X1338920D01*
Y473668D01*
X1494670Y447169D02*
X1502920D01*
X1330660Y473668D02*
X1338920D01*
X1330660D02*
Y505969D01*
X1502920D02*
X1568920D01*
X1494670Y447169D02*
Y473668D01*
X1502920D01*
Y505969D01*
Y384468D02*
Y447169D01*
X1568920Y384468D02*
Y429157D01*
X1418970Y572666D02*
X1557480D01*
X2319480Y421661D02*
Y481165D01*
X2180970Y421661D02*
Y481165D01*
X2172980Y510668D02*
X2180970D01*
Y520659D02*
X2319480D01*
X2180970Y510668D02*
Y520659D01*
X2172980Y481165D02*
Y510668D01*
Y481165D02*
X2180970D01*
X2172980Y421661D02*
X2180970D01*
Y572666D02*
X2319480D01*
X2128980Y612161D02*
X2136970D01*
X2172980Y671665D02*
X2180970D01*
X2172980Y612161D02*
X2180970D01*
Y671665D01*
X2172980Y582657D02*
Y612161D01*
Y582657D02*
X2180970D01*
X2128980D02*
X2136970D01*
Y612161D01*
X2180970Y572666D02*
Y582657D01*
X553727Y510668D02*
X561720D01*
X553727Y481165D02*
Y510668D01*
X561720D02*
Y520659D01*
X485914Y510668D02*
Y520659D01*
X493920Y481165D02*
Y510668D01*
X553727Y481165D02*
X561720D01*
X485914D02*
X493920D01*
X485914Y510668D02*
X493920D01*
X561720Y520659D02*
X700225D01*
X795475Y612161D02*
Y671665D01*
Y582657D02*
X803469D01*
Y612161D01*
X795475Y572666D02*
Y582657D01*
Y612161D02*
X803469D01*
X795475Y671665D02*
X803469D01*
X395033Y572666D02*
Y582657D01*
X533539Y572666D02*
Y582657D01*
X395033Y612161D02*
Y671665D01*
Y572666D02*
X533539D01*
X541532Y671665D02*
Y701168D01*
Y582657D02*
Y612161D01*
X533539Y671665D02*
X541532D01*
X533539Y582657D02*
X541532D01*
X533539Y612161D02*
X541532D01*
X533539D02*
Y671665D01*
Y701168D02*
X541532D01*
X648977Y582657D02*
X656971D01*
X648977D02*
Y612161D01*
Y701168D02*
X656971D01*
X648977Y671665D02*
Y701168D01*
X656971Y612161D02*
Y671665D01*
X648977Y612161D02*
X656971D01*
X648977Y671665D02*
X656971D01*
Y572666D02*
Y582657D01*
X914538Y510668D02*
X922532D01*
X914538D02*
Y520659D01*
X922532Y481165D02*
Y510668D01*
X914538Y481165D02*
X922532D01*
X776034Y520659D02*
X914538D01*
X839477Y701168D02*
X847471D01*
X803469Y671665D02*
Y701168D01*
X795475D02*
X803469D01*
X839477Y671665D02*
Y701168D01*
Y671665D02*
X847471D01*
X839477Y612161D02*
X847471D01*
Y671665D01*
Y572666D02*
Y582657D01*
X839477D02*
X847471D01*
X839477D02*
Y612161D01*
X768040Y510668D02*
X776034D01*
X768040Y481165D02*
Y510668D01*
X700225D02*
X708219D01*
X700225Y481165D02*
X708219D01*
Y510668D01*
X768040Y481165D02*
X776034D01*
Y510668D02*
Y520659D01*
X700225Y510668D02*
Y520659D01*
X656971Y572666D02*
X795475D01*
X2113170Y392157D02*
Y421661D01*
Y481165D02*
Y510668D01*
X2105160D02*
X2113170D01*
X2105160Y421661D02*
X2113170D01*
X2105160D02*
Y481165D01*
X2113170D01*
X2105160Y392157D02*
X2113170D01*
X2105160Y510668D02*
Y520659D01*
X1958660Y392157D02*
X1966670D01*
X1958660Y481165D02*
Y510668D01*
X1966670D02*
Y520659D01*
X1958660Y510668D02*
X1966670D01*
X1958660Y481165D02*
X1966670D01*
Y421661D02*
Y481165D01*
X1958660Y421661D02*
X1966670D01*
X1958660Y392157D02*
Y421661D01*
X1724160Y392157D02*
X1732170D01*
X1740920Y473668D02*
Y505969D01*
X1724160Y481165D02*
X1732170D01*
Y392157D02*
Y421661D01*
X1740920Y505969D02*
X1806910D01*
X1724160Y421661D02*
X1732170D01*
X1724160D02*
Y429157D01*
X1740920D01*
X1724160Y473668D02*
Y481165D01*
Y473668D02*
X1740920D01*
X1609470Y572666D02*
Y582657D01*
X1724160Y510668D02*
Y520659D01*
X1732170Y481165D02*
Y510668D01*
X1601480Y582657D02*
X1609470D01*
X1585670Y421661D02*
Y429157D01*
Y520659D02*
X1724160D01*
X1601480Y582657D02*
Y612161D01*
X1609470D01*
X1724160Y510668D02*
X1732170D01*
X1609470Y572666D02*
X1747980D01*
X1585670Y510668D02*
Y520659D01*
Y473668D02*
Y481165D01*
X1747980Y572666D02*
Y582657D01*
Y612161D02*
X1755970D01*
Y582657D02*
Y612161D01*
X1747980Y582657D02*
X1755970D01*
X1938480Y612161D02*
X1946470D01*
X1938480Y582657D02*
X1946470D01*
X1982480Y612161D02*
X1990470D01*
X1946470Y582657D02*
Y612161D01*
X1982480Y582657D02*
Y612161D01*
Y582657D02*
X1990470D01*
Y572666D02*
Y582657D01*
X1966670Y520659D02*
X2105160D01*
X1990470Y572666D02*
X2128980D01*
Y582657D01*
X1791980D02*
Y612161D01*
X1799970Y572666D02*
Y582657D01*
X1791980D02*
X1799970D01*
X1806910Y473668D02*
Y505969D01*
Y473668D02*
X1815170D01*
X1806910Y447169D02*
X1815170D01*
X1799970Y572666D02*
X1938480D01*
Y582657D01*
X1815170Y447169D02*
Y473668D01*
X1791980Y612161D02*
X1799970D01*
X1109423Y510668D02*
Y520659D01*
X1247913Y510668D02*
X1255921D01*
X1264670Y505969D02*
X1330660D01*
X1247913Y510668D02*
Y520659D01*
X1109423D02*
X1247913D01*
X1462230Y802661D02*
Y862164D01*
Y773158D02*
X1470220D01*
X1462230Y891667D02*
X1470220D01*
Y862164D02*
Y891667D01*
X1462230Y802661D02*
X1470220D01*
Y773158D02*
Y802661D01*
X1462230Y862164D02*
X1470220D01*
X1458600Y963658D02*
X1466610D01*
X1458600D02*
Y993161D01*
X1466610Y953668D02*
Y963658D01*
X1125227Y773158D02*
X1133221D01*
X1176475Y701168D02*
Y711158D01*
Y612161D02*
Y671665D01*
X1184469D01*
Y701168D01*
X1176475D02*
X1184469D01*
X1133221Y763168D02*
Y773158D01*
X1125227D02*
Y802661D01*
X1133221Y763168D02*
X1271725D01*
Y773158D01*
X1279719D01*
Y802661D01*
X1366980Y671665D02*
X1374970D01*
X1220477D02*
Y701168D01*
X1228471Y612161D02*
Y671665D01*
Y701168D02*
Y711158D01*
X1220477Y701168D02*
X1228471D01*
X1220477Y671665D02*
X1228471D01*
X1366980Y701168D02*
Y711158D01*
Y612161D02*
Y671665D01*
X1374970D02*
Y701168D01*
X1366980D02*
X1374970D01*
X1228471Y711158D02*
X1366980D01*
X1410980Y701168D02*
X1418970D01*
Y612161D02*
Y671665D01*
X1410980D02*
X1418970D01*
Y701168D02*
Y711158D01*
X1410980Y671665D02*
Y701168D01*
X1422590Y963658D02*
Y993161D01*
X1414600Y953668D02*
Y963658D01*
X1422590D01*
X1176475Y572666D02*
Y582657D01*
X1184469D02*
Y612161D01*
X1176475Y582657D02*
X1184469D01*
X1220477Y612161D02*
X1228471D01*
X1220477Y582657D02*
Y612161D01*
Y582657D02*
X1228471D01*
Y572666D02*
Y582657D01*
X1176475Y612161D02*
X1184469D01*
X1374970Y582657D02*
Y612161D01*
X1366980D02*
X1374970D01*
X1410980D02*
X1418970D01*
X1410980Y582657D02*
Y612161D01*
Y582657D02*
X1418970D01*
Y572666D02*
Y582657D01*
X1228471Y572666D02*
X1366980D01*
Y582657D01*
X1374970D01*
X1323720Y763168D02*
Y773158D01*
X1462230Y891667D02*
Y901658D01*
X1315730Y773158D02*
X1323720D01*
Y901658D02*
X1462230D01*
X1323720Y891667D02*
Y901658D01*
X1315730Y891667D02*
X1323720D01*
X1315730Y862164D02*
X1323720D01*
Y802661D02*
Y862164D01*
X1315730D02*
Y891667D01*
Y773158D02*
Y802661D01*
X1323720D01*
Y763168D02*
X1462230D01*
Y773158D01*
X1276110Y953668D02*
X1414600D01*
X2367100Y993161D02*
Y1052664D01*
X2375110D02*
Y1082167D01*
X2367100D02*
X2375110D01*
X2367100Y1052664D02*
X2375110D01*
X2220600Y1082167D02*
X2228610D01*
X2220600Y1052664D02*
Y1082167D01*
X2176600D02*
X2184610D01*
Y1052664D02*
Y1082167D01*
X2224230Y802661D02*
Y862164D01*
X2077730D02*
X2085720D01*
X2224230D02*
X2232220D01*
X2085720Y891667D02*
Y901658D01*
X2077730Y891667D02*
X2085720D01*
X2077730Y862164D02*
Y891667D01*
X1990470Y711158D02*
X2128980D01*
Y701168D02*
Y711158D01*
X1938480Y701168D02*
X1946470D01*
X1938480D02*
Y711158D01*
X1990470Y701168D02*
Y711158D01*
X1982480Y701168D02*
X1990470D01*
X2128980D02*
X2136970D01*
X2180970Y711158D02*
X2319480D01*
X2085720Y802661D02*
Y862164D01*
X2033730Y773158D02*
X2041720D01*
Y802661D01*
X2033730D02*
X2041720D01*
X2033730D02*
Y862164D01*
X2077730Y802661D02*
X2085720D01*
X2077730Y773158D02*
Y802661D01*
Y773158D02*
X2085720D01*
Y763168D02*
Y773158D01*
X2176600Y1052664D02*
X2184610D01*
X1986100Y993161D02*
Y1052664D01*
X2038110Y993161D02*
Y1052664D01*
Y953668D02*
X2176600D01*
Y963658D01*
X2184610D01*
Y993161D01*
X2220600D02*
X2228610D01*
X2176600D02*
X2184610D01*
X2176600D02*
Y1052664D01*
X2220600D02*
X2228610D01*
Y993161D02*
Y1052664D01*
X2220600Y963658D02*
Y993161D01*
X2224230Y891667D02*
X2232220D01*
X2224230D02*
Y901658D01*
X2085720D02*
X2224230D01*
X2220600Y963658D02*
X2228610D01*
Y953668D02*
Y963658D01*
Y953668D02*
X2367100D01*
X847471Y572666D02*
X985975D01*
Y582657D01*
X993969D01*
X985975Y612161D02*
X993969D01*
Y582657D02*
Y612161D01*
X890725Y891667D02*
X898719D01*
X934727Y862164D02*
X942721D01*
Y891667D02*
Y901658D01*
X934727Y862164D02*
Y891667D01*
X890725Y802661D02*
Y862164D01*
X934727Y891667D02*
X942721D01*
X890725Y862164D02*
X898719D01*
Y891667D01*
X942721Y802661D02*
Y862164D01*
X934727Y802661D02*
X942721D01*
X985975Y701168D02*
Y711158D01*
X1029977Y671665D02*
Y701168D01*
X985975D02*
X993969D01*
Y671665D02*
Y701168D01*
X985975Y671665D02*
X993969D01*
X985975Y612161D02*
Y671665D01*
X1029977Y582657D02*
Y612161D01*
X656971Y701168D02*
Y711158D01*
X898719Y773158D02*
Y802661D01*
X795475Y701168D02*
Y711158D01*
X656971D02*
X795475D01*
X847471Y701168D02*
Y711158D01*
X985975D01*
X752221Y763168D02*
X890725D01*
Y773158D01*
X898719D01*
X890725Y802661D02*
X898719D01*
X934727Y773158D02*
X942721D01*
X934727D02*
Y802661D01*
X942721Y763168D02*
Y773158D01*
X553727D02*
Y802661D01*
X561720D01*
X553727Y773158D02*
X561720D01*
X553727Y862164D02*
Y891667D01*
Y862164D02*
X561720D01*
Y802661D02*
Y862164D01*
Y763168D02*
Y773158D01*
X744227Y862164D02*
X752221D01*
X700225Y802661D02*
X708219D01*
X752221D02*
Y862164D01*
X744227Y802661D02*
X752221D01*
X744227Y773158D02*
Y802661D01*
Y773158D02*
X752221D01*
X561720Y763168D02*
X700225D01*
Y773158D01*
X708219D01*
Y802661D01*
X700225D02*
Y862164D01*
X708219D01*
Y891667D01*
X744227Y862164D02*
Y891667D01*
X752221Y763168D02*
Y773158D01*
X339415Y510668D02*
X347421D01*
X339415Y481165D02*
Y510668D01*
Y481165D02*
X347421D01*
Y510668D02*
Y520659D01*
X485914D01*
Y862164D02*
X493920D01*
X485914Y802661D02*
X493920D01*
X387040Y671665D02*
Y701168D01*
Y671665D02*
X395033D01*
X387040Y612161D02*
X395033D01*
X387040Y582657D02*
Y612161D01*
Y582657D02*
X395033D01*
X533539Y701168D02*
Y711158D01*
X395033D02*
X533539D01*
X485914Y773158D02*
X493920D01*
Y802661D01*
X339415D02*
X347421D01*
Y862164D01*
X339415Y773158D02*
Y802661D01*
X347421Y763168D02*
Y773158D01*
X339415Y862164D02*
X347421D01*
X339415Y773158D02*
X347421D01*
Y763168D02*
X485914D01*
Y773158D01*
X339415Y862164D02*
Y891667D01*
X347421D01*
X387040Y701168D02*
X395033D01*
Y711158D01*
X485914Y802661D02*
Y862164D01*
X493920D02*
Y891667D01*
X315602Y1052664D02*
Y1082167D01*
X323609D01*
X315602Y1052664D02*
X323609D01*
X315602Y993161D02*
X323609D01*
X1276110Y1092158D02*
X1414600D01*
Y1082167D02*
Y1092158D01*
X1466610Y1082167D02*
Y1092158D01*
X1605100Y1082167D02*
Y1092158D01*
X1466610D02*
X1605100D01*
X315602Y963658D02*
Y993161D01*
Y963658D02*
X323609D01*
Y953668D02*
Y963658D01*
Y953668D02*
X462102D01*
X323609Y1082167D02*
Y1092158D01*
X462102D01*
X514109Y1082167D02*
Y1092158D01*
X652600Y1082167D02*
Y1092158D01*
X514109D02*
X652600D01*
X462102Y1082167D02*
Y1092158D01*
X843100Y1082167D02*
Y1092158D01*
X704610D02*
X843100D01*
X895110Y1082167D02*
Y1092158D01*
X704610Y1082167D02*
Y1092158D01*
X887102Y963658D02*
X895110D01*
Y953668D02*
X1033600D01*
Y1082167D02*
Y1092158D01*
X895110D02*
X1033600D01*
X895110Y953668D02*
Y963658D01*
X1224100Y1082167D02*
Y1092158D01*
X1085610D02*
X1224100D01*
X1276110Y1082167D02*
Y1092158D01*
X1657110D02*
X1795600D01*
X1657110Y1082167D02*
Y1092158D01*
X1795600Y1082167D02*
Y1092158D01*
X1847610Y1082167D02*
Y1092158D01*
X1986100D01*
Y1082167D02*
Y1092158D01*
X2038110Y1082167D02*
Y1092158D01*
X2176600Y1082167D02*
Y1092158D01*
X2038110D02*
X2176600D01*
X696602Y1082167D02*
X704610D01*
X652600D02*
X660608D01*
Y1052664D02*
Y1082167D01*
X462102Y1052664D02*
X470108D01*
Y1082167D01*
X462102D02*
X470108D01*
X506102D02*
X514109D01*
X506102Y1052664D02*
Y1082167D01*
Y1052664D02*
X514109D01*
X652600D02*
X660608D01*
X696602D02*
Y1082167D01*
Y1052664D02*
X704610D01*
X1613110D02*
Y1082167D01*
X1649100Y1052664D02*
Y1082167D01*
X1605100Y993161D02*
Y1052664D01*
X1613110D01*
X1605100Y1082167D02*
X1613110D01*
X1605100Y993161D02*
X1613110D01*
X1458600Y1082167D02*
X1466610D01*
X1268102D02*
X1276110D01*
X1414600D02*
X1422590D01*
X1458600Y1052664D02*
Y1082167D01*
Y1052664D02*
X1466610D01*
X704610Y993161D02*
Y1052664D01*
X843100Y993161D02*
Y1052664D01*
X895110Y993161D02*
Y1052664D01*
X887102Y993161D02*
X895110D01*
X1033600D02*
X1041608D01*
X1033600D02*
Y1052664D01*
X1224100Y993161D02*
Y1052664D01*
X1232094D01*
X1276110Y993161D02*
Y1052664D01*
X1414600Y993161D02*
X1422590D01*
X1414600D02*
Y1052664D01*
X1422590D01*
X1466610Y993161D02*
Y1052664D01*
X1458600Y993161D02*
X1466610D01*
X323609D02*
Y1052664D01*
X462102Y993161D02*
Y1052664D01*
X514109Y993161D02*
Y1052664D01*
X652600Y993161D02*
Y1052664D01*
X1077602Y993161D02*
X1085610D01*
X1077602Y1052664D02*
X1085610D01*
Y993161D02*
Y1052664D01*
X1041608D02*
Y1082167D01*
X1077602D02*
X1085610D01*
X1077602Y1052664D02*
Y1082167D01*
X851108Y1052664D02*
Y1082167D01*
X1033600Y1052664D02*
X1041608D01*
X843100Y1082167D02*
X851108D01*
X843100Y1052664D02*
X851108D01*
X1033600Y1082167D02*
X1041608D01*
X887102Y1052664D02*
X895110D01*
X887102Y1082167D02*
X895110D01*
X887102Y1052664D02*
Y1082167D01*
X1232094Y1052664D02*
Y1082167D01*
X1224100D02*
X1232094D01*
X1268102Y1052664D02*
Y1082167D01*
Y1052664D02*
X1276110D01*
X1422590D02*
Y1082167D01*
X2533790Y392157D02*
X2541780D01*
X2533790Y481165D02*
X2541780D01*
Y510668D01*
X2533790D02*
X2541780D01*
Y392157D02*
Y421661D01*
X700225Y382166D02*
Y392157D01*
X708219D01*
X768040D02*
X776034D01*
X339415D02*
Y421661D01*
X347421D01*
X339415Y392157D02*
X347421D01*
Y382166D02*
Y392157D01*
X485914Y382166D02*
Y392157D01*
X493920D01*
Y421661D01*
X485914D02*
X493920D01*
X553727D02*
X561720D01*
X553727Y392157D02*
Y421661D01*
Y392157D02*
X561720D01*
Y382166D02*
Y392157D01*
X2533790Y421661D02*
X2541780D01*
Y582657D02*
Y612161D01*
X2533790D02*
X2541780D01*
X2533790Y671665D02*
X2541780D01*
X1085610Y1082167D02*
Y1092158D01*
X2228610Y1082167D02*
Y1092158D01*
X768040Y392157D02*
Y421661D01*
X2367100Y1082167D02*
Y1092158D01*
X2228610D02*
X2367100D01*
X2557600Y1082167D02*
Y1092158D01*
X2419110Y1082167D02*
Y1092158D01*
X2557600Y1082167D02*
X2565610D01*
Y1052664D02*
Y1082167D01*
X2419110Y1092158D02*
X2557600D01*
X708219Y392157D02*
Y421661D01*
X2411100Y1082167D02*
X2419110D01*
X2411100Y1052664D02*
Y1082167D01*
Y1052664D02*
X2419110D01*
Y993161D02*
Y1052664D01*
X296861Y1118905D02*
X2584360D01*
X561720Y421661D02*
Y481165D01*
X347421Y421661D02*
Y481165D01*
X485914Y421661D02*
Y481165D01*
X768040Y421661D02*
X776034D01*
X700225D02*
X708219D01*
X700225D02*
Y481165D01*
X2533790Y582657D02*
X2541780D01*
X2584360Y355405D02*
Y1118905D01*
X2557600Y993161D02*
Y1052664D01*
Y963658D02*
X2565610D01*
X2557600Y953668D02*
Y963658D01*
X2541780Y671665D02*
Y701168D01*
X2533790D02*
X2541780D01*
X2557600Y993161D02*
X2565610D01*
Y963658D02*
Y993161D01*
X2419110Y953668D02*
X2557600D01*
Y1052664D02*
X2565610D01*
X1724160Y382166D02*
Y392157D01*
X1247913Y382166D02*
Y392157D01*
X1109423Y382166D02*
Y392157D01*
X1585670Y382166D02*
Y392157D01*
X1966670Y382166D02*
Y392157D01*
X2105160Y382166D02*
Y392157D01*
X2180970Y382166D02*
Y392157D01*
X2319480Y382166D02*
Y392157D01*
X2387290Y421661D02*
X2395280D01*
Y382166D02*
Y392157D01*
X2533790Y382166D02*
Y392157D01*
X2387290D02*
Y421661D01*
Y392157D02*
X2395280D01*
Y421661D02*
Y481165D01*
X2533790Y421661D02*
Y481165D01*
X914538Y382166D02*
Y392157D01*
X776034Y382166D02*
Y392157D01*
Y421661D02*
Y481165D01*
X914538Y392157D02*
X922532D01*
Y421661D01*
X914538D02*
X922532D01*
X914538D02*
Y481165D01*
X1026672Y384468D02*
Y447169D01*
Y505969D02*
X1092666D01*
X1018417Y447169D02*
X1026672D01*
X1018417D02*
Y473668D01*
X1026672D01*
Y505969D01*
X1081225Y763168D02*
Y773158D01*
X1089219D01*
Y802661D01*
X1081225D02*
X1089219D01*
X942721Y901658D02*
X1081225D01*
Y891667D02*
X1089219D01*
X1081225Y802661D02*
Y862164D01*
X1089219D01*
X1081225Y891667D02*
Y901658D01*
X1033600Y953668D02*
Y963658D01*
X1041608D01*
Y993161D01*
X1077602Y963658D02*
Y993161D01*
Y963658D02*
X1085610D01*
Y953668D02*
Y963658D01*
Y953668D02*
X1224100D01*
X942721Y763168D02*
X1081225D01*
X2172980Y701168D02*
X2180970D01*
X1799970D02*
Y711158D01*
X1791980Y701168D02*
X1799970D01*
X2180970D02*
Y711158D01*
X1514220Y763168D02*
X1652730D01*
X1704720D02*
X1843230D01*
X2085720D02*
X2224230D01*
X2172980Y671665D02*
Y701168D01*
X1799970Y711158D02*
X1938480D01*
X1982480Y671665D02*
Y701168D01*
X2136970Y671665D02*
Y701168D01*
X1418970Y711158D02*
X1557480D01*
X1609470D02*
X1747980D01*
Y701168D02*
X1755970D01*
X1565470Y671665D02*
Y701168D01*
X1557480D02*
X1565470D01*
X1557480D02*
Y711158D01*
X1609470Y701168D02*
Y711158D01*
X1601480Y701168D02*
X1609470D01*
X1601480Y671665D02*
Y701168D01*
X1755970Y671665D02*
Y701168D01*
X1747980D02*
Y711158D01*
X1791980Y671665D02*
Y701168D01*
X1946470Y671665D02*
Y701168D01*
X1037971Y572666D02*
X1176475D01*
X1037971Y711158D02*
X1176475D01*
X1037971Y701168D02*
Y711158D01*
X1029977Y701168D02*
X1037971D01*
X1029977Y671665D02*
X1037971D01*
Y612161D02*
Y671665D01*
X1029977Y612161D02*
X1037971D01*
X1029977Y582657D02*
X1037971D01*
Y572666D02*
Y582657D01*
X1466610Y953668D02*
X1605100D01*
X1843230Y802661D02*
Y862164D01*
X1895220Y802661D02*
Y862164D01*
X1887230Y802661D02*
X1895220D01*
X1605100Y953668D02*
Y963658D01*
X1613110D01*
Y993161D01*
X1649100Y963658D02*
Y993161D01*
X1657110D01*
Y1052664D01*
X1649100Y963658D02*
X1657110D01*
Y953668D02*
Y963658D01*
Y953668D02*
X1795600D01*
Y993161D02*
Y1052664D01*
X1847610Y993161D02*
Y1052664D01*
X1506230Y773158D02*
Y802661D01*
Y773158D02*
X1514220D01*
Y763168D02*
Y773158D01*
X1652730Y763168D02*
Y773158D01*
X1660720D01*
Y802661D01*
X1652730D02*
X1660720D01*
X1696730Y773158D02*
Y802661D01*
X1704720Y763168D02*
Y773158D01*
X1696730D02*
X1704720D01*
X1843230Y763168D02*
Y773158D01*
X1895220Y763168D02*
Y773158D01*
X1851220D02*
Y802661D01*
X1843230Y773158D02*
X1851220D01*
X1843230Y802661D02*
X1851220D01*
X1887230Y773158D02*
Y802661D01*
Y773158D02*
X1895220D01*
Y763168D02*
X2033730D01*
Y773158D01*
X2224230Y763168D02*
Y773158D01*
X2232220D01*
X2224230Y802661D02*
X2232220D01*
X1506230D02*
X1514220D01*
Y891667D02*
Y901658D01*
X1506230Y891667D02*
X1514220D01*
X1506230Y862164D02*
X1514220D01*
Y802661D02*
Y862164D01*
X1506230D02*
Y891667D01*
X1652730Y802661D02*
Y862164D01*
X1660720D01*
X1652730Y891667D02*
X1660720D01*
X1652730D02*
Y901658D01*
X1514220D02*
X1652730D01*
X1704720Y802661D02*
Y862164D01*
X1696730Y802661D02*
X1704720D01*
X1649100Y1082167D02*
X1657110D01*
X1649100Y1052664D02*
X1657110D01*
X1795600D02*
X1803610D01*
Y1082167D01*
X1795600D02*
X1803610D01*
X1839600D02*
X1847610D01*
X1839600Y1052664D02*
Y1082167D01*
Y1052664D02*
X1847610D01*
X1986100D02*
X1994110D01*
Y1082167D01*
X1986100D02*
X1994110D01*
X2030100D02*
X2038110D01*
X2030100Y1052664D02*
Y1082167D01*
Y1052664D02*
X2038110D01*
X296861Y355405D02*
X2584360D01*
X296861D02*
Y1118905D01*
X1026672Y384468D02*
X1043908D01*
Y372465D02*
Y384468D01*
Y372465D02*
X1075411D01*
Y384468D01*
X1092666D01*
X1109423Y382166D02*
X1247913D01*
X1264670Y384468D02*
X1281910D01*
Y372465D02*
Y384468D01*
Y372465D02*
X1313410D01*
Y384468D01*
X1330660D01*
X1502920D02*
X1520160D01*
Y372465D02*
Y384468D01*
Y372465D02*
X1551660D01*
Y384468D01*
X1568920D01*
X1585670Y382166D02*
X1724160D01*
X1740920Y384468D02*
X1758160D01*
Y372465D02*
Y384468D01*
Y372465D02*
X1789660D01*
Y384468D01*
X1806910D01*
X347421Y382166D02*
X485914D01*
X561720D02*
X700225D01*
X776034D02*
X914538D01*
X1966670D02*
X2105160D01*
X2180970D02*
X2319480D01*
X2395280D02*
X2533790D01*
X2346198Y506471D02*
Y491236D01*
X2353815D01*
X2356355Y493775D01*
Y503932D01*
X2353815Y506471D01*
X2346198D01*
X2369051Y491236D02*
Y506471D01*
X2361433Y498853D01*
X2371590D01*
X2376668Y503932D02*
X2379207Y506471D01*
X2384286D01*
X2386825Y503932D01*
Y501393D01*
X2384286Y498853D01*
X2386825Y496314D01*
Y493775D01*
X2384286Y491236D01*
X2379207D01*
X2376668Y493775D01*
Y496314D01*
X2379207Y498853D01*
X2376668Y501393D01*
Y503932D01*
X2379207Y498853D02*
X2384286D01*
X2132838Y510281D02*
Y495046D01*
X2140455D01*
X2142995Y497585D01*
Y507742D01*
X2140455Y510281D01*
X2132838D01*
X2155691Y495046D02*
Y510281D01*
X2148073Y502663D01*
X2158230D01*
X2163308Y510281D02*
X2173465D01*
Y507742D01*
X2163308Y497585D01*
Y495046D01*
X1842008Y509011D02*
Y493776D01*
X1849626D01*
X1852165Y496315D01*
Y506472D01*
X1849626Y509011D01*
X1842008D01*
X1864861Y493776D02*
Y509011D01*
X1857243Y501394D01*
X1867400D01*
X1882635Y509011D02*
X1877556Y506472D01*
X1872478Y501394D01*
Y496315D01*
X1875017Y493776D01*
X1880096D01*
X1882635Y496315D01*
Y498854D01*
X1880096Y501394D01*
X1872478D01*
X961898Y509011D02*
Y493776D01*
X969516D01*
X972055Y496315D01*
Y506472D01*
X969516Y509011D01*
X961898D01*
X984751Y493776D02*
Y509011D01*
X977133Y501394D01*
X987290D01*
X1002525Y509011D02*
X992368D01*
Y501394D01*
X997447Y503933D01*
X999986D01*
X1002525Y501394D01*
Y496315D01*
X999986Y493776D01*
X994907D01*
X992368Y496315D01*
X726948Y515361D02*
Y500126D01*
X734566D01*
X737105Y502665D01*
Y512822D01*
X734566Y515361D01*
X726948D01*
X749801Y500126D02*
Y515361D01*
X742183Y507743D01*
X752340D01*
X765036Y500126D02*
Y515361D01*
X757418Y507743D01*
X767575D01*
X512318Y517901D02*
Y502666D01*
X519935D01*
X522475Y505205D01*
Y515362D01*
X519935Y517901D01*
X512318D01*
X535171Y502666D02*
Y517901D01*
X527553Y510284D01*
X537710D01*
X542788Y515362D02*
X545327Y517901D01*
X550406D01*
X552945Y515362D01*
Y512823D01*
X550406Y510284D01*
X547867D01*
X550406D01*
X552945Y507744D01*
Y505205D01*
X550406Y502666D01*
X545327D01*
X542788Y505205D01*
X2396501Y530863D02*
Y546097D01*
X2404119D01*
X2406658Y543558D01*
Y538480D01*
X2404119Y535941D01*
X2396501D01*
X2401579D02*
X2406658Y530863D01*
X2411736Y546097D02*
X2416815D01*
X2414275D01*
Y530863D01*
X2411736D01*
X2416815D01*
X2434589Y543558D02*
X2432050Y546097D01*
X2426971D01*
X2424432Y543558D01*
Y533402D01*
X2426971Y530863D01*
X2432050D01*
X2434589Y533402D01*
Y538480D01*
X2429510D01*
X2439667Y546097D02*
Y530863D01*
Y538480D01*
X2449824D01*
Y546097D01*
Y530863D01*
X2454902Y546097D02*
X2465059D01*
X2459981D01*
Y530863D01*
X2180599Y543558D02*
Y528322D01*
X2188217D01*
X2190756Y530862D01*
Y541018D01*
X2188217Y543558D01*
X2180599D01*
X2203452D02*
X2198373D01*
X2195834Y541018D01*
Y530862D01*
X2198373Y528322D01*
X2203452D01*
X2205991Y530862D01*
Y541018D01*
X2203452Y543558D01*
X2211069D02*
Y528322D01*
X2216147Y533401D01*
X2221226Y528322D01*
Y543558D01*
X2226304Y528322D02*
Y543558D01*
X2236461Y528322D01*
Y543558D01*
X1968509D02*
Y528322D01*
X1978665D01*
X1983744Y543558D02*
X1988822D01*
X1986283D01*
Y528322D01*
X1983744D01*
X1988822D01*
X2006596Y543558D02*
X1996440D01*
Y535940D01*
X2001518D01*
X1996440D01*
Y528322D01*
X2011675Y543558D02*
X2021831D01*
X2016753D01*
Y528322D01*
X1595133Y541018D02*
X1592594Y543557D01*
X1587516D01*
X1584976Y541018D01*
Y538479D01*
X1587516Y535940D01*
X1592594D01*
X1595133Y533400D01*
Y530861D01*
X1592594Y528322D01*
X1587516D01*
X1584976Y530861D01*
X1600211Y528322D02*
Y543557D01*
X1607829D01*
X1610368Y541018D01*
Y535940D01*
X1607829Y533400D01*
X1600211D01*
X1615447Y528322D02*
Y538479D01*
X1620525Y543557D01*
X1625603Y538479D01*
Y528322D01*
Y535940D01*
X1615447D01*
X1640838Y541018D02*
X1638299Y543557D01*
X1633221D01*
X1630682Y541018D01*
Y530861D01*
X1633221Y528322D01*
X1638299D01*
X1640838Y530861D01*
X1656073Y543557D02*
X1645917D01*
Y528322D01*
X1656073D01*
X1645917Y535940D02*
X1650995D01*
X1661152Y525783D02*
X1671308D01*
X1676387Y528322D02*
Y543557D01*
X1684004D01*
X1686544Y541018D01*
Y535940D01*
X1684004Y533400D01*
X1676387D01*
X1681465D02*
X1686544Y528322D01*
X1120153Y539748D02*
X1117614Y542287D01*
X1112536D01*
X1109996Y539748D01*
Y537209D01*
X1112536Y534670D01*
X1117614D01*
X1120153Y532130D01*
Y529591D01*
X1117614Y527052D01*
X1112536D01*
X1109996Y529591D01*
X1125231Y527052D02*
Y542287D01*
X1132849D01*
X1135388Y539748D01*
Y534670D01*
X1132849Y532130D01*
X1125231D01*
X1140467Y527052D02*
Y537209D01*
X1145545Y542287D01*
X1150623Y537209D01*
Y527052D01*
Y534670D01*
X1140467D01*
X1165858Y539748D02*
X1163319Y542287D01*
X1158241D01*
X1155702Y539748D01*
Y529591D01*
X1158241Y527052D01*
X1163319D01*
X1165858Y529591D01*
X1181093Y542287D02*
X1170937D01*
Y527052D01*
X1181093D01*
X1170937Y534670D02*
X1176015D01*
X1186172Y524513D02*
X1196329D01*
X1201407Y542287D02*
Y527052D01*
X1211564D01*
X777252D02*
Y537209D01*
X782330Y542287D01*
X787408Y537209D01*
Y527052D01*
Y534670D01*
X777252D01*
X792487Y542287D02*
Y527052D01*
X802643D01*
X807722Y542287D02*
X817878D01*
X812800D01*
Y527052D01*
X822957Y524513D02*
X833113D01*
X838192Y542287D02*
Y527052D01*
X848348D01*
X562616Y543558D02*
Y528322D01*
X567695Y533401D01*
X572773Y528322D01*
Y543558D01*
X577851D02*
X582930D01*
X580390D01*
Y528322D01*
X577851D01*
X582930D01*
X590547D02*
Y543558D01*
X600704Y528322D01*
Y543558D01*
X356881Y541018D02*
X354342Y543557D01*
X349263D01*
X346724Y541018D01*
Y530861D01*
X349263Y528322D01*
X354342D01*
X356881Y530861D01*
X361959Y543557D02*
X372116D01*
X367037D01*
Y528322D01*
X377194D02*
Y543557D01*
X384812D01*
X387351Y541018D01*
Y535940D01*
X384812Y533400D01*
X377194D01*
X382272D02*
X387351Y528322D01*
X392429Y543557D02*
Y528322D01*
X402586D01*
X407664Y525783D02*
X417821D01*
X422899Y543557D02*
Y528322D01*
X433056D01*
X2405393Y730248D02*
X2402854Y732787D01*
X2397775D01*
X2395236Y730248D01*
Y727709D01*
X2397775Y725170D01*
X2402854D01*
X2405393Y722630D01*
Y720091D01*
X2402854Y717552D01*
X2397775D01*
X2395236Y720091D01*
X2410471Y732787D02*
Y717552D01*
Y725170D01*
X2420628D01*
Y732787D01*
Y717552D01*
X2425706Y732787D02*
X2430784D01*
X2428245D01*
Y717552D01*
X2425706D01*
X2430784D01*
X2448559Y732787D02*
X2438402D01*
Y725170D01*
X2443480D01*
X2438402D01*
Y717552D01*
X2453637Y732787D02*
X2463794D01*
X2458716D01*
Y717552D01*
X2468872Y715013D02*
X2479029D01*
X2484107Y717552D02*
Y732787D01*
X2491725D01*
X2494264Y730248D01*
Y725170D01*
X2491725Y722630D01*
X2484107D01*
X2489186D02*
X2494264Y717552D01*
X2183134Y734057D02*
Y721362D01*
X2185673Y718822D01*
X2190752D01*
X2193291Y721362D01*
Y734057D01*
X2198369Y718822D02*
Y734057D01*
X2205987D01*
X2208526Y731518D01*
Y726440D01*
X2205987Y723901D01*
X2198369D01*
X1974086Y705104D02*
X1966468Y712721D01*
X1974086Y720339D01*
X1773428Y706374D02*
Y721609D01*
X1778506Y716531D01*
X1783585Y721609D01*
Y706374D01*
X1582928D02*
Y721609D01*
X1593085Y706374D01*
Y721609D01*
X1392428D02*
Y706374D01*
X1400045D01*
X1402585Y708913D01*
Y711452D01*
X1400045Y713991D01*
X1392428D01*
X1400045D01*
X1402585Y716531D01*
Y719070D01*
X1400045Y721609D01*
X1392428D01*
X1201928D02*
Y711452D01*
X1207006Y706374D01*
X1212085Y711452D01*
Y721609D01*
X1021585Y719070D02*
X1019045Y721609D01*
X1013967D01*
X1011428Y719070D01*
Y708913D01*
X1013967Y706374D01*
X1019045D01*
X1021585Y708913D01*
X820928Y721609D02*
X831085Y706374D01*
Y721609D02*
X820928Y706374D01*
X630428Y721609D02*
X640585D01*
Y719070D01*
X630428Y708913D01*
Y706374D01*
X640585D01*
X406413Y732788D02*
X403874Y735327D01*
X398795D01*
X396256Y732788D01*
Y730249D01*
X398795Y727710D01*
X403874D01*
X406413Y725170D01*
Y722631D01*
X403874Y720092D01*
X398795D01*
X396256Y722631D01*
X411491Y735327D02*
Y720092D01*
Y727710D01*
X421648D01*
Y735327D01*
Y720092D01*
X426726Y735327D02*
X431805D01*
X429265D01*
Y720092D01*
X426726D01*
X431805D01*
X449579Y735327D02*
X439422D01*
Y727710D01*
X444500D01*
X439422D01*
Y720092D01*
X454657Y735327D02*
X464814D01*
X459735D01*
Y720092D01*
X469892Y717553D02*
X480049D01*
X485127Y735327D02*
Y720092D01*
X495284D01*
X2358398Y925827D02*
X2348241D01*
Y910592D01*
X2358398D01*
X2348241Y918210D02*
X2353320D01*
X2363477Y910592D02*
Y925827D01*
X2373633Y910592D01*
Y925827D01*
X2378712D02*
X2388868D01*
X2383790D01*
Y910592D01*
X2404103Y925827D02*
X2393947D01*
Y910592D01*
X2404103D01*
X2393947Y918210D02*
X2399025D01*
X2409182Y910592D02*
Y925827D01*
X2416799D01*
X2419339Y923288D01*
Y918210D01*
X2416799Y915671D01*
X2409182D01*
X2414260D02*
X2419339Y910592D01*
X2086612Y925827D02*
Y910592D01*
X2096768D01*
X1897382Y924557D02*
Y909323D01*
Y914401D01*
X1907538Y924557D01*
X1899921Y916940D01*
X1907538Y909323D01*
X1717038Y923288D02*
X1711960D01*
X1714499D01*
Y910592D01*
X1711960Y908053D01*
X1709421D01*
X1706882Y910592D01*
X1515112Y923288D02*
Y908053D01*
Y915670D01*
X1525268D01*
Y923288D01*
Y908053D01*
X1336038Y923288D02*
X1333499Y925827D01*
X1328421D01*
X1325882Y923288D01*
Y913132D01*
X1328421Y910592D01*
X1333499D01*
X1336038Y913132D01*
Y918210D01*
X1330960D01*
X1144268Y924557D02*
X1134112D01*
Y916940D01*
X1139190D01*
X1134112D01*
Y909323D01*
X943612Y923288D02*
Y908053D01*
X951229D01*
X953768Y910592D01*
Y920748D01*
X951229Y923288D01*
X943612D01*
X763268Y920748D02*
X760729Y923288D01*
X755651D01*
X753112Y920748D01*
Y918209D01*
X755651Y915670D01*
X760729D01*
X763268Y913131D01*
Y910592D01*
X760729Y908053D01*
X755651D01*
X753112Y910592D01*
X562612Y908053D02*
Y918209D01*
X567690Y923288D01*
X572768Y918209D01*
Y908053D01*
Y915670D01*
X562612D01*
X356881Y922018D02*
X354342Y924557D01*
X349263D01*
X346724Y922018D01*
Y911862D01*
X349263Y909323D01*
X354342D01*
X356881Y911862D01*
X361959Y909323D02*
Y919479D01*
X367037Y924557D01*
X372116Y919479D01*
Y909323D01*
Y916940D01*
X361959D01*
X377194Y909323D02*
Y924557D01*
X384812D01*
X387351Y922018D01*
Y916940D01*
X384812Y914401D01*
X377194D01*
X402586Y922018D02*
X400047Y924557D01*
X394968D01*
X392429Y922018D01*
Y919479D01*
X394968Y916940D01*
X400047D01*
X402586Y914401D01*
Y911862D01*
X400047Y909323D01*
X394968D01*
X392429Y911862D01*
X407664Y924557D02*
Y909323D01*
X417821D01*
X422899Y924557D02*
Y909323D01*
Y914401D01*
X433056Y924557D01*
X425438Y916940D01*
X433056Y909323D01*
X2423160Y1113788D02*
Y1098552D01*
X2230122Y1097282D02*
Y1112517D01*
X2237739D01*
X2240278Y1109978D01*
Y1104900D01*
X2237739Y1102361D01*
X2230122D01*
X2049779Y1113788D02*
X2044701D01*
X2042162Y1111248D01*
Y1101092D01*
X2044701Y1098552D01*
X2049779D01*
X2052318Y1101092D01*
Y1111248D01*
X2049779Y1113788D01*
X1849121Y1112517D02*
X1854199D01*
X1851660D01*
Y1097282D01*
X1849121D01*
X1854199D01*
X1659892Y1113788D02*
Y1101092D01*
X1662431Y1098552D01*
X1667509D01*
X1670048Y1101092D01*
Y1113788D01*
X1466852Y1112517D02*
Y1109978D01*
X1471930Y1104900D01*
X1477008Y1109978D01*
Y1112517D01*
X1471930Y1104900D02*
Y1097282D01*
X1276352Y1112517D02*
X1286508D01*
X1281430D01*
Y1097282D01*
X1085852Y1098552D02*
Y1113788D01*
X1093469D01*
X1096008Y1111248D01*
Y1106170D01*
X1093469Y1103631D01*
X1085852D01*
X1090930D02*
X1096008Y1098552D01*
X905508Y1113788D02*
X895352D01*
Y1098552D01*
X905508D01*
X895352Y1106170D02*
X900430D01*
X704852Y1113788D02*
Y1098552D01*
X709930Y1103631D01*
X715008Y1098552D01*
Y1113788D01*
X521968Y1101092D02*
Y1111248D01*
X519429Y1113788D01*
X514351D01*
X511812Y1111248D01*
Y1101092D01*
X514351Y1098552D01*
X519429D01*
X516890Y1103631D02*
X521968Y1098552D01*
X519429D02*
X521968Y1101092D01*
X332743Y1113788D02*
X322587D01*
Y1098552D01*
X332743D01*
X322587Y1106170D02*
X327665D01*
X347978Y1111248D02*
X345439Y1113788D01*
X340361D01*
X337822Y1111248D01*
Y1108709D01*
X340361Y1106170D01*
X345439D01*
X347978Y1103631D01*
Y1101092D01*
X345439Y1098552D01*
X340361D01*
X337822Y1101092D01*
X363213Y1111248D02*
X360674Y1113788D01*
X355596D01*
X353057Y1111248D01*
Y1101092D01*
X355596Y1098552D01*
X360674D01*
X363213Y1101092D01*
M02*
