G04*
G04 #@! TF.GenerationSoftware,Altium Limited,Altium Designer,23.0.1 (38)*
G04*
G04 Layer_Color=32768*
%FSLAX44Y44*%
%MOMM*%
G71*
G04*
G04 #@! TF.SameCoordinates,2A03AE12-3D19-43D4-860B-1B312F968F15*
G04*
G04*
G04 #@! TF.FilePolarity,Positive*
G04*
G01*
G75*
%ADD15C,0.0254*%
%ADD16C,0.0500*%
%ADD17C,0.0508*%
G36*
X531089Y1103441D02*
X528089D01*
Y1111441D01*
X531089D01*
Y1103441D01*
D02*
G37*
G36*
X444589D02*
X441589D01*
Y1111441D01*
X444589D01*
Y1103441D01*
D02*
G37*
G36*
X531089Y1059941D02*
X528089D01*
Y1070941D01*
X531089D01*
Y1059941D01*
D02*
G37*
G36*
X444589D02*
X441589D01*
Y1070941D01*
X444589D01*
Y1059941D01*
D02*
G37*
G36*
X512440Y1054939D02*
X508441D01*
Y1061939D01*
X512440D01*
Y1054939D01*
D02*
G37*
G36*
X464239D02*
X460239D01*
Y1061939D01*
X464239D01*
Y1054939D01*
D02*
G37*
G36*
X456238Y1054938D02*
X452239D01*
Y1061938D01*
X456238D01*
Y1054938D01*
D02*
G37*
G36*
X520439Y1054937D02*
X516439D01*
Y1061938D01*
X520439D01*
Y1054937D01*
D02*
G37*
G36*
X504840D02*
X502840D01*
Y1061938D01*
X504840D01*
Y1054937D01*
D02*
G37*
G36*
X499836D02*
X497836D01*
Y1061938D01*
X499836D01*
Y1054937D01*
D02*
G37*
G36*
X494840D02*
X492840D01*
Y1061938D01*
X494840D01*
Y1054937D01*
D02*
G37*
G36*
X489838D02*
X487838D01*
Y1061938D01*
X489838D01*
Y1054937D01*
D02*
G37*
G36*
X484840D02*
X482840D01*
Y1061938D01*
X484840D01*
Y1054937D01*
D02*
G37*
G36*
X479838D02*
X477838D01*
Y1061938D01*
X479838D01*
Y1054937D01*
D02*
G37*
G36*
X474840D02*
X472840D01*
Y1061938D01*
X474840D01*
Y1054937D01*
D02*
G37*
G36*
X469838D02*
X467838D01*
Y1061938D01*
X469838D01*
Y1054937D01*
D02*
G37*
G36*
X442189Y1055186D02*
Y1054937D01*
Y1054689D01*
X441837Y1054337D01*
X441340D01*
X440989Y1054689D01*
Y1054937D01*
Y1055186D01*
X441340Y1055537D01*
X441837D01*
X442189Y1055186D01*
D02*
G37*
G36*
X637851Y679440D02*
Y679192D01*
Y678943D01*
X637499Y678592D01*
X637002D01*
X636651Y678943D01*
Y679192D01*
Y679440D01*
X637002Y679792D01*
X637499D01*
X637851Y679440D01*
D02*
G37*
G36*
X347439Y669670D02*
Y668070D01*
X343439D01*
Y669670D01*
Y673670D01*
X347439D01*
Y669670D01*
D02*
G37*
G36*
X637250Y665942D02*
X619650D01*
Y673442D01*
X637250D01*
Y665942D01*
D02*
G37*
G36*
X356939Y653570D02*
Y649670D01*
X352939D01*
Y653570D01*
Y655270D01*
X356939D01*
Y653570D01*
D02*
G37*
G36*
X337940D02*
Y649670D01*
X333940D01*
Y653570D01*
Y655270D01*
X337940D01*
Y653570D01*
D02*
G37*
G36*
X360540Y649919D02*
Y649421D01*
X360188Y649070D01*
X359691D01*
X359340Y649421D01*
Y649919D01*
X359691Y650270D01*
X360188D01*
X360540Y649919D01*
D02*
G37*
G36*
X637250Y642943D02*
X619650D01*
Y650443D01*
X637250D01*
Y642943D01*
D02*
G37*
G36*
X584850Y631693D02*
X567250D01*
Y661693D01*
X584850D01*
Y631693D01*
D02*
G37*
G36*
X637250Y619943D02*
X619650D01*
Y627443D01*
X637250D01*
Y619943D01*
D02*
G37*
G36*
X1554950Y516814D02*
Y516318D01*
X1554599Y515966D01*
X1554102D01*
X1553751Y516318D01*
Y516814D01*
X1554102Y517166D01*
X1554599D01*
X1554950Y516814D01*
D02*
G37*
G36*
X1457198Y501396D02*
Y495708D01*
X1453642D01*
Y501396D01*
Y507746D01*
X1457198D01*
Y501396D01*
D02*
G37*
G36*
X1449324D02*
Y495708D01*
X1445768D01*
Y501396D01*
Y507746D01*
X1449324D01*
Y501396D01*
D02*
G37*
G36*
X1441450D02*
Y495708D01*
X1437894D01*
Y501396D01*
Y507746D01*
X1441450D01*
Y501396D01*
D02*
G37*
G36*
X1433576D02*
Y495708D01*
X1430020D01*
Y501396D01*
Y507746D01*
X1433576D01*
Y501396D01*
D02*
G37*
G36*
X1425702D02*
Y495708D01*
X1422146D01*
Y501396D01*
Y507746D01*
X1425702D01*
Y501396D01*
D02*
G37*
G36*
X1417828D02*
Y495708D01*
X1414272D01*
Y501396D01*
Y507746D01*
X1417828D01*
Y501396D01*
D02*
G37*
G36*
X1409954D02*
Y495708D01*
X1406398D01*
Y501396D01*
Y507746D01*
X1409954D01*
Y501396D01*
D02*
G37*
G36*
X1402080D02*
Y495708D01*
X1398524D01*
Y501396D01*
Y507746D01*
X1402080D01*
Y501396D01*
D02*
G37*
G36*
X1394206D02*
Y495708D01*
X1390650D01*
Y501396D01*
Y507746D01*
X1394206D01*
Y501396D01*
D02*
G37*
G36*
X1386332D02*
Y495708D01*
X1382776D01*
Y501396D01*
Y507746D01*
X1386332D01*
Y501396D01*
D02*
G37*
G36*
X1378458D02*
Y495708D01*
X1374902D01*
Y501396D01*
Y507746D01*
X1378458D01*
Y501396D01*
D02*
G37*
G36*
X1478026Y483362D02*
X1465988D01*
Y486918D01*
X1478026D01*
Y483362D01*
D02*
G37*
G36*
X1366112D02*
X1354074D01*
Y486918D01*
X1366112D01*
Y483362D01*
D02*
G37*
G36*
X1478026Y475488D02*
X1465988D01*
Y479044D01*
X1478026D01*
Y475488D01*
D02*
G37*
G36*
X1366112D02*
X1354074D01*
Y479044D01*
X1366112D01*
Y475488D01*
D02*
G37*
G36*
X1534350Y471565D02*
X1526350D01*
Y516565D01*
X1534350D01*
Y471565D01*
D02*
G37*
G36*
X1478026Y467614D02*
X1465988D01*
Y471170D01*
X1478026D01*
Y467614D01*
D02*
G37*
G36*
X1366112D02*
X1354074D01*
Y471170D01*
X1366112D01*
Y467614D01*
D02*
G37*
G36*
X1478026Y459740D02*
X1465988D01*
Y463296D01*
X1478026D01*
Y459740D01*
D02*
G37*
G36*
X1366112D02*
X1354074D01*
Y463296D01*
X1366112D01*
Y459740D01*
D02*
G37*
G36*
X1478026Y451866D02*
X1465988D01*
Y455422D01*
X1478026D01*
Y451866D01*
D02*
G37*
G36*
X1366112D02*
X1354074D01*
Y455422D01*
X1366112D01*
Y451866D01*
D02*
G37*
G36*
X1478026Y443992D02*
X1465988D01*
Y447548D01*
X1478026D01*
Y443992D01*
D02*
G37*
G36*
X1366112D02*
X1354074D01*
Y447548D01*
X1366112D01*
Y443992D01*
D02*
G37*
G36*
X1478026Y436118D02*
X1465988D01*
Y439674D01*
X1478026D01*
Y436118D01*
D02*
G37*
G36*
X1366112D02*
X1354074D01*
Y439674D01*
X1366112D01*
Y436118D01*
D02*
G37*
G36*
X1478026Y428244D02*
X1465988D01*
Y431800D01*
X1478026D01*
Y428244D01*
D02*
G37*
G36*
X1366112D02*
X1354074D01*
Y431800D01*
X1366112D01*
Y428244D01*
D02*
G37*
G36*
X1478026Y420370D02*
X1465988D01*
Y423926D01*
X1478026D01*
Y420370D01*
D02*
G37*
G36*
X1366112D02*
X1354074D01*
Y423926D01*
X1366112D01*
Y420370D01*
D02*
G37*
G36*
X1478026Y412496D02*
X1465988D01*
Y416052D01*
X1478026D01*
Y412496D01*
D02*
G37*
G36*
X1366112D02*
X1354074D01*
Y416052D01*
X1366112D01*
Y412496D01*
D02*
G37*
G36*
X1478026Y404622D02*
X1465988D01*
Y408178D01*
X1478026D01*
Y404622D01*
D02*
G37*
G36*
X1366112D02*
X1354074D01*
Y408178D01*
X1366112D01*
Y404622D01*
D02*
G37*
G36*
X1534350Y389765D02*
X1526350D01*
Y434765D01*
X1534350D01*
Y389765D01*
D02*
G37*
G36*
X1457198Y390044D02*
Y383794D01*
X1453642D01*
Y390044D01*
Y395832D01*
X1457198D01*
Y390044D01*
D02*
G37*
G36*
X1449324D02*
Y383794D01*
X1445768D01*
Y390044D01*
Y395832D01*
X1449324D01*
Y390044D01*
D02*
G37*
G36*
X1441450D02*
Y383794D01*
X1437894D01*
Y390044D01*
Y395832D01*
X1441450D01*
Y390044D01*
D02*
G37*
G36*
X1433576D02*
Y383794D01*
X1430020D01*
Y390044D01*
Y395832D01*
X1433576D01*
Y390044D01*
D02*
G37*
G36*
X1425702D02*
Y383794D01*
X1422146D01*
Y390044D01*
Y395832D01*
X1425702D01*
Y390044D01*
D02*
G37*
G36*
X1417828D02*
Y383794D01*
X1414272D01*
Y390044D01*
Y395832D01*
X1417828D01*
Y390044D01*
D02*
G37*
G36*
X1409954D02*
Y383794D01*
X1406398D01*
Y390044D01*
Y395832D01*
X1409954D01*
Y390044D01*
D02*
G37*
G36*
X1402080D02*
Y383794D01*
X1398524D01*
Y390044D01*
Y395832D01*
X1402080D01*
Y390044D01*
D02*
G37*
G36*
X1394206D02*
Y383794D01*
X1390650D01*
Y390044D01*
Y395832D01*
X1394206D01*
Y390044D01*
D02*
G37*
G36*
X1386332D02*
Y383794D01*
X1382776D01*
Y390044D01*
Y395832D01*
X1386332D01*
Y390044D01*
D02*
G37*
G36*
X1378458D02*
Y383794D01*
X1374902D01*
Y390044D01*
Y395832D01*
X1378458D01*
Y390044D01*
D02*
G37*
G36*
X1478626Y384043D02*
Y383794D01*
Y383545D01*
X1478274Y383194D01*
X1477777D01*
X1477426Y383545D01*
Y383794D01*
Y384043D01*
X1477777Y384394D01*
X1478274D01*
X1478626Y384043D01*
D02*
G37*
D15*
X346710Y695960D02*
G03*
X346710Y695960I-1270J0D01*
G01*
X347980Y631083D02*
G03*
X347980Y631083I-1270J0D01*
G01*
X1091207Y449729D02*
G03*
X1091207Y449729I-1270J0D01*
G01*
X1523851Y537209D02*
G03*
X1523851Y537209I-1270J0D01*
G01*
X1539240Y369570D02*
G03*
X1539240Y369570I-1270J0D01*
G01*
X1315720Y461663D02*
G03*
X1315720Y461663I-1270J0D01*
G01*
Y444088D02*
G03*
X1315720Y444088I-1270J0D01*
G01*
X1315871Y426514D02*
G03*
X1315871Y426514I-1270J0D01*
G01*
X1315720Y382270D02*
G03*
X1315720Y382270I-1270J0D01*
G01*
X1315871Y408939D02*
G03*
X1315871Y408939I-1270J0D01*
G01*
X1315720Y496812D02*
G03*
X1315720Y496812I-1270J0D01*
G01*
Y479238D02*
G03*
X1315720Y479238I-1270J0D01*
G01*
X343440Y695960D02*
X347440D01*
X345440Y693960D02*
Y697960D01*
X346710Y629083D02*
Y633083D01*
X344710Y631083D02*
X348710D01*
X1087937Y449729D02*
X1091937D01*
X1089937Y447729D02*
Y451729D01*
X1520581Y537209D02*
X1524581D01*
X1522581Y535209D02*
Y539209D01*
X1535970Y369570D02*
X1539970D01*
X1537970Y367570D02*
Y371570D01*
X1312450Y461663D02*
X1316450D01*
X1314450Y459663D02*
Y463663D01*
X1312450Y444089D02*
X1316450D01*
X1314450Y442089D02*
Y446088D01*
X1312601Y426514D02*
X1316601D01*
X1314601Y424514D02*
Y428514D01*
X1312450Y382270D02*
X1316450D01*
X1314450Y380270D02*
Y384270D01*
X1312601Y408939D02*
X1316601D01*
X1314601Y406939D02*
Y410939D01*
X1312450Y496812D02*
X1316450D01*
X1314450Y494812D02*
Y498812D01*
X1312450Y479238D02*
X1316450D01*
X1314450Y477238D02*
Y481237D01*
D16*
X603551Y575309D02*
G03*
X603551Y575309I-3500J0D01*
G01*
D02*
G03*
X603551Y575309I-3500J0D01*
G01*
X604210Y599440D02*
G03*
X604210Y599440I-3500J0D01*
G01*
D02*
G03*
X604210Y599440I-3500J0D01*
G01*
X603549Y717551D02*
G03*
X603549Y717551I-3500J0D01*
G01*
D02*
G03*
X603549Y717551I-3500J0D01*
G01*
X602940Y693420D02*
G03*
X602940Y693420I-3500J0D01*
G01*
D02*
G03*
X602940Y693420I-3500J0D01*
G01*
X600051Y570309D02*
Y580309D01*
X595051Y575309D02*
X605051D01*
X595051D02*
X605051D01*
X600051Y570309D02*
Y580309D01*
X600710Y594440D02*
Y604440D01*
X595710Y599440D02*
X605710D01*
X595710D02*
X605710D01*
X600710Y594440D02*
Y604440D01*
X600049Y712551D02*
Y722551D01*
X595049Y717551D02*
X605049D01*
X595049D02*
X605049D01*
X600049Y712551D02*
Y722551D01*
X599440Y688420D02*
Y698420D01*
X594440Y693420D02*
X604440D01*
X594440D02*
X604440D01*
X599440Y688420D02*
Y698420D01*
D17*
X330940Y668170D02*
X359940D01*
X330940Y655170D02*
Y668170D01*
Y655170D02*
X359940D01*
Y668170D01*
X584750Y614192D02*
Y679192D01*
Y614192D02*
X619750D01*
Y679192D01*
X584750D02*
X619750D01*
X1506350Y396165D02*
X1554350D01*
Y510165D01*
X1506350D02*
X1554350D01*
X1506350Y396165D02*
Y510165D01*
X1366012Y395732D02*
X1466088D01*
X1366012D02*
Y495808D01*
X1466088D01*
Y395732D02*
Y495808D01*
X441639Y1059937D02*
Y1133437D01*
Y1059937D02*
X531039D01*
Y1133437D01*
X441639D02*
X531039D01*
M02*
